<svg width="43" height="46" viewBox="0 0 43 46" fill="none" xmlns="http://www.w3.org/2000/svg">
<path d="M36.782 0.889008H5.885C2.6348 0.889008 0 3.52381 0 6.77401V39.782C0 43.0322 2.6348 45.667 5.885 45.667H36.782C40.0322 45.667 42.667 43.0322 42.667 39.782V6.77401C42.667 3.52381 40.0322 0.889008 36.782 0.889008Z" fill="url(#paint0_linear_19817_9)"/>
<path d="M32.1714 37H25.3114L16.1764 23.21V37H9.31641V12.325H16.1764L25.3114 26.29V12.325H32.1714V37Z" fill="white"/>
<path d="M38.2525 13.4446C29.9091 15.49 26.5701 21.3991 26.5701 23.6718C26.2804 27.0808 26.7439 35.9444 27.4392 30.4899C28.1345 25.0354 35.0658 15.4332 38.2525 13.4446Z" fill="white"/>
<path d="M2.94336 37C10.2439 35.1119 13.1654 29.6574 13.1654 27.5595C13.4189 24.4127 13.0133 16.2309 12.405 21.2659C11.7966 26.3008 5.73176 35.1644 2.94336 37Z" fill="white"/>
<defs>
<linearGradient id="paint0_linear_19817_9" x1="-6.621" y1="-3.44399" x2="45.37" y2="49.512" gradientUnits="userSpaceOnUse">
<stop stop-color="#468EF9"/>
<stop offset="1" stop-color="#0C66EE"/>
</linearGradient>
</defs>
</svg>
