<svg width="450" height="450" viewBox="0 0 450 450" fill="none" xmlns="http://www.w3.org/2000/svg">
<path d="M226.069 166.842L230.893 178.767L228.235 216.566L226.256 216.875C205.37 220.112 191.177 221.748 183.678 221.781H183.446C175.894 221.781 166.845 220.094 156.299 216.72L155.819 216.566L154.601 188.263H157.473L162.667 176.087L162.662 176.083C162.605 176.18 162.545 176.275 162.484 176.367C160.318 179.569 159.063 176.983 153.977 178.116C147.886 179.472 145.182 185.628 139.82 190.228C137.33 192.364 132.105 193.371 129.604 194.841L126.977 196.384C118.747 201.239 109.287 207.136 104.32 214.818C98.4975 223.824 94.4838 232.371 90.7777 242.389C82.7886 263.981 77.2436 286.016 73.28 308.677C69.2656 331.646 66.8534 354.897 65.009 378.131C64.1553 388.898 63.4291 399.673 62.8303 410.458L62.6824 413.154C62.367 419.021 62.6411 424.762 67.9759 428.375C71.7983 430.964 76.871 431.358 81.3554 431.624L81.5995 431.638C114.755 433.583 147.911 435.519 181.067 437.447L230.801 440.355C239.076 440.84 247.351 441.321 255.626 441.799L275.826 442.966C285.346 443.507 294.878 443.976 304.41 443.921C316.392 443.835 328.357 442.982 340.23 441.367L341.278 441.224C348.756 440.192 359.595 437.58 360.939 428.614C360.984 428.355 360.967 428.089 360.889 427.837C360.81 427.586 360.672 427.357 360.487 427.171C360.301 426.984 360.073 426.844 359.823 426.764C359.572 426.683 359.306 426.664 359.046 426.708C359.359 425.249 359.553 423.787 359.739 422.517C360.528 417.093 361.044 411.632 361.284 406.155C361.741 395.184 361.4 384.195 360.266 373.273C358.452 355.22 355.912 337.198 353.287 319.24L352.703 315.251C349.91 296.224 346.585 277.229 341.383 258.696C336.577 241.575 329.079 223.763 318.762 212.938C308.445 202.113 293.735 192.706 278.621 186.945C277.312 186.446 251.306 180.752 249.554 181.583L249.239 181.336C244.054 177.243 236.658 170.053 229.042 172.317L229.025 172.289C228.845 171.958 228.142 169.749 227.172 166.844L226.069 166.842Z" fill="white"/>
<path d="M220.569 150.97C214.271 142.985 207.631 140.446 197.82 141.041C191.109 140.753 184.481 142.611 178.897 146.345C173.735 149.042 169.159 152.755 165.891 157.534C163.096 161.621 165.22 171.718 162.667 176.087C162.692 176.562 162.705 176.996 162.706 177.388C162.706 181.168 160.075 185.387 154.813 190.044L154.604 190.228V217.701C163.451 220.421 174.404 221.781 187.463 221.781C200.328 221.781 213.708 219.621 227.605 215.301L228.236 215.104L230.893 185.245L228.235 176.983V170.062L227.21 166.967C225.39 161.525 222.607 153.553 220.569 150.97Z" fill="white"/>
<path d="M228.235 215.103C228.235 215.103 204.877 221.905 188.93 221.905C172.984 221.905 155.82 215.103 155.82 215.103L158.604 439.013L203.423 439.56L228.235 215.103Z" fill="white"/>
<path d="M303.288 446.174C303.969 446.179 304.633 445.964 305.182 445.561C305.731 445.158 306.135 444.588 306.334 443.937L306.361 443.847L306.437 443.906C306.999 442.036 306.816 439.915 306.638 437.864C306.581 437.209 306.528 436.59 306.498 435.979L305.354 412.831C305.054 406.737 304.763 400.553 304.478 394.574C304 384.469 303.506 374.021 302.961 363.747L302.666 358.294C302.286 351.402 301.97 344.205 301.701 336.294L301.62 333.847C301.509 330.399 301.473 326.711 301.952 323.09C302.378 319.518 303.455 316.055 305.127 312.87C305.155 312.823 305.17 312.77 305.17 312.716C305.17 312.662 305.155 312.608 305.127 312.562C305.098 312.514 305.058 312.475 305.01 312.447C304.961 312.42 304.907 312.405 304.851 312.404C304.772 312.405 304.695 312.435 304.636 312.488C303.126 313.826 301.784 315.342 300.641 317.004C299.482 318.688 298.493 320.483 297.69 322.362C296.095 326.114 295.111 330.097 294.775 334.16C294.256 340.316 294.667 346.698 295.064 352.872C295.204 355.045 295.349 357.288 295.448 359.472C295.55 361.697 295.65 363.956 295.748 366.141V366.149C296.056 373.092 296.376 380.271 296.769 387.328C296.944 390.476 297.127 393.676 297.304 396.768V396.778V396.796C297.656 402.951 298.02 409.316 298.342 415.577L299.433 436.764C299.462 437.325 299.468 437.908 299.472 438.523V438.526C299.492 440.393 299.512 442.323 300.163 443.906C300.748 445.327 301.917 446.174 303.288 446.174ZM145.39 439.56C145.899 439.552 146.399 439.431 146.855 439.206C147.331 438.979 147.758 438.66 148.111 438.267C148.389 437.976 148.602 437.629 148.735 437.249C148.868 436.87 148.919 436.466 148.883 436.065C147.337 422.756 145.12 409.305 142.976 396.297L142.866 395.627C141.013 384.381 138.848 372.747 136.435 361.049C134.143 349.94 131.548 338.395 128.722 326.735L127.757 322.765C126.359 316.976 125.289 312.101 124.61 307.124C123.81 301.26 123.696 296.065 124.263 291.24C124.762 286.792 125.974 282.454 127.853 278.391C128.802 276.368 129.968 274.454 131.329 272.681C132.684 270.918 134.269 269.343 136.041 268L136.258 267.839C136.71 267.52 137.088 267.108 137.366 266.632C137.645 266.155 137.819 265.624 137.875 265.074C137.907 264.627 137.839 264.178 137.675 263.76C137.512 263.343 137.257 262.967 136.929 262.661C135.938 261.689 134.881 260.655 133.787 259.586L127.492 253.443L126.224 252.202C125.211 251.213 124.12 250.159 123.009 249.149C122.857 249.01 122.648 248.846 122.405 248.655L122.403 248.653C121.608 248.027 120.521 247.171 120.42 246.41C120.352 245.898 120.827 245.064 121.174 244.458C121.262 244.303 121.346 244.157 121.41 244.035L122.83 241.169C123.482 239.847 124.129 238.494 124.754 237.187L125.204 236.246C125.665 235.284 126.136 234.308 126.59 233.363L126.593 233.357C127.748 230.96 128.941 228.481 130.087 226.023L139.675 205.478C140.299 204.141 140.918 202.762 141.517 201.429V201.426C143.528 196.951 145.605 192.325 148.325 188.203L149.023 187.158C149.633 186.293 150.125 185.351 150.486 184.356C150.816 183.272 151.305 182.242 151.938 181.302C152.766 180.248 153.833 179.406 155.052 178.847C156.255 178.264 157.534 177.851 158.851 177.62C158.913 177.614 158.97 177.584 159.01 177.537C159.049 177.489 159.069 177.428 159.064 177.366C159.061 177.286 159.03 177.21 158.977 177.15C158.923 177.091 158.851 177.051 158.772 177.039C158.385 177.003 157.995 176.984 157.614 176.984C155.037 176.984 152.927 177.803 150.483 178.752C150.263 178.838 150.04 178.924 149.815 179.011C148.458 179.532 147.161 180.143 145.949 180.725C144.339 181.497 143.323 182.846 142.34 184.278L141.814 185.049C138.666 189.662 136.283 194.878 133.977 199.922L133.975 199.927C133.285 201.437 132.571 202.999 131.851 204.512C130.976 206.351 130.084 208.221 129.221 210.029L129.218 210.035C126.498 215.738 123.683 221.634 120.98 227.465L119.223 231.25C118.395 233.037 117.503 234.963 116.607 236.935L115.116 240.241C114.425 241.788 113.665 243.59 113.402 245.379C113.088 247.184 113.447 249.041 114.411 250.598C115.932 253.064 118.335 255.085 120.658 257.04C121.373 257.641 122.049 258.209 122.699 258.789C125.01 260.853 127.357 262.947 129.672 265.012C127.296 267.408 125.259 270.117 123.617 273.065C121.977 276.014 120.677 279.14 119.744 282.382C117.74 281.548 115.432 281.218 113.199 280.899C112.422 280.788 111.69 280.684 110.974 280.559C110.773 280.523 110.57 280.505 110.367 280.505C110.01 280.495 109.655 280.562 109.327 280.703C108.999 280.843 108.705 281.053 108.466 281.318C108.033 281.816 107.786 282.449 107.768 283.108C107.746 283.455 107.794 283.803 107.91 284.132C108.025 284.46 108.204 284.762 108.438 285.02C108.67 285.25 108.947 285.431 109.252 285.55C109.557 285.669 109.883 285.724 110.21 285.712H110.276C110.525 285.707 110.789 285.705 111.084 285.705C111.588 285.705 112.093 285.712 112.628 285.719H112.652C113.175 285.726 113.717 285.734 114.269 285.734C115.845 285.767 117.421 285.643 118.973 285.364C118.49 287.5 118.136 289.663 117.913 291.841C117.384 296.991 117.576 302.576 118.502 308.917C119.341 314.662 120.676 320.366 121.971 325.715L122.191 326.622C125.43 339.943 128.082 351.694 130.301 362.544C132.755 374.543 134.993 386.759 136.952 398.851C138.652 409.342 139.953 420.06 141.211 430.425L141.221 430.513C141.442 432.336 141.671 434.219 141.898 436.072C141.989 436.978 142.357 437.834 142.952 438.524C143.261 438.86 143.639 439.126 144.059 439.305C144.479 439.484 144.933 439.571 145.39 439.56H145.39ZM227.841 439.013C228.398 439.019 228.944 438.862 229.412 438.559C229.925 438.214 230.304 437.702 230.485 437.11C233.919 426.724 237.191 416.095 240.355 405.819C241.467 402.204 242.617 398.468 243.762 394.783C250.622 372.697 256.775 348.413 263.128 318.357C265.809 305.674 268.292 292.772 270.512 280.01C270.936 277.572 271.354 275.121 271.754 272.722L272.345 269.146C272.75 266.598 272.98 263.942 271 261.925C270.195 261.151 269.252 260.534 268.22 260.107C267.15 259.653 266.056 259.256 264.943 258.92C264.33 258.723 263.752 258.536 263.199 258.336L263.014 258.268C262.089 257.922 261.155 257.582 260.251 257.253C259.595 257.014 258.851 256.744 258.138 256.481C259.366 255.514 260.607 254.52 261.805 253.559L261.817 253.549L261.821 253.546C262.954 252.64 264.125 251.699 265.283 250.786C265.917 250.287 266.564 249.783 267.189 249.295C268.468 248.298 269.791 247.268 271.065 246.224C271.853 245.599 272.538 244.856 273.096 244.02C273.65 243.18 273.986 242.215 274.072 241.212C274.218 239.355 273.537 237.601 272.88 235.905C272.789 235.671 272.686 235.406 272.59 235.15L272.519 234.961C271.862 233.189 271.099 231.13 270.327 229.116L265.726 217.083C264.806 214.675 263.886 212.233 262.997 209.868L262.994 209.861C261.048 204.69 259.035 199.343 256.926 194.14C255.735 191.128 254.363 188.191 252.817 185.345C252.015 183.891 251.214 182.583 250.373 181.345C249.953 180.706 249.447 180.127 248.87 179.625C248.284 179.142 247.643 178.728 246.962 178.392C245.743 177.704 244.589 176.905 243.516 176.005C242.463 175.125 241.335 174.339 240.146 173.654C237.81 172.364 235.192 171.672 232.524 171.641C232.48 171.64 232.437 171.655 232.405 171.683C232.372 171.712 232.351 171.752 232.346 171.796C232.338 171.84 232.347 171.886 232.371 171.924C232.394 171.963 232.431 171.991 232.474 172.004C233.957 172.446 235.393 173.033 236.76 173.757C238.128 174.481 239.403 175.367 240.558 176.397C241.722 177.362 242.703 178.53 243.451 179.845C243.698 180.353 243.87 180.895 243.961 181.453L243.995 181.64C244.123 182.494 244.444 183.308 244.934 184.019L245.022 184.156C246.471 186.424 247.75 188.796 248.847 191.253C250.054 193.91 251.103 196.644 251.883 198.73L255.968 209.695L260.046 220.662C260.923 223.018 261.8 225.374 262.678 227.729L263.994 231.263C264.699 233.155 265.437 235.074 266.15 236.929L266.159 236.952L266.215 237.099C266.318 237.365 266.423 237.633 266.525 237.892C266.749 238.459 266.98 239.044 267.182 239.626C267.196 239.666 267.218 239.766 267.248 239.895C267.293 240.14 267.36 240.381 267.449 240.614L267.416 240.673C266.84 241.642 265.579 242.508 264.467 243.272C263.983 243.605 263.525 243.92 263.151 244.222L258.863 247.688C257.97 248.41 257.055 249.138 256.171 249.843L256.152 249.858C254.012 251.56 251.799 253.322 249.706 255.144C249.32 255.472 249.036 255.902 248.886 256.386C248.753 256.837 248.735 257.315 248.832 257.776C248.954 258.358 249.223 258.9 249.612 259.349C250.001 259.809 250.508 260.154 251.079 260.346C253.705 261.201 256.333 262.199 258.874 263.165C259.659 263.463 260.547 263.801 261.397 264.119C261.916 264.313 262.451 264.501 262.967 264.682C263.837 264.987 264.736 265.302 265.593 265.66L266.426 266.02C266.65 266.121 266.646 266.152 266.618 266.357C266.597 266.492 266.585 266.629 266.582 266.765C266.558 267.217 266.496 267.665 266.394 268.106V268.109C266.357 268.294 266.32 268.486 266.289 268.67C265.143 275.597 263.908 282.632 262.618 289.582C260.37 301.691 257.843 314.063 255.11 326.356C252.44 338.367 249.496 350.647 246.36 362.855C244.507 370.067 242.542 377.379 240.643 384.451V384.455V384.461C239.319 389.387 237.95 394.481 236.631 399.499C233.85 410.07 230.26 420.65 226.789 430.883L226.761 430.965C226.24 432.499 225.702 434.086 225.177 435.643C225.036 436.006 224.987 436.398 225.032 436.785C225.077 437.171 225.217 437.541 225.437 437.862C225.721 438.227 226.086 438.522 226.503 438.722C226.92 438.921 227.379 439.021 227.841 439.013ZM158.916 434.523C159.547 434.531 160.164 434.33 160.67 433.952C161.222 433.523 161.641 432.948 161.882 432.292C162.06 431.777 162.092 431.223 161.974 430.691C161.985 430.351 162.014 429.982 162.041 429.627V429.624C162.081 429.13 162.12 428.618 162.11 428.18L162.044 425.03C162.038 424.734 162.028 424.433 162.018 424.141V424.137C162.013 423.962 162.006 423.763 162.001 423.574L162.058 423.58C165.141 423.729 168.445 423.796 172.769 423.796C174.572 423.796 176.405 423.785 178.176 423.774H178.205C179.891 423.764 181.635 423.753 183.356 423.752L186.51 423.757H186.969C189.193 423.757 191.816 423.743 194.406 423.644L195.391 423.602C195.994 423.574 196.619 423.551 197.225 423.529H197.25C198.63 423.479 200.06 423.427 201.466 423.306C201.183 425.587 200.948 427.642 200.747 429.59C200.714 430.018 200.771 430.449 200.916 430.853C201.061 431.258 201.29 431.627 201.588 431.936C201.946 432.339 202.382 432.664 202.87 432.893C203.358 433.122 203.887 433.25 204.425 433.268C204.905 433.276 205.38 433.182 205.82 432.992C206.26 432.802 206.655 432.52 206.977 432.165C207.602 431.438 207.993 430.54 208.098 429.587C208.737 424.762 209.186 419.832 209.621 415.065C210.023 410.656 210.439 406.098 211.003 401.633C211.949 394.146 212.795 386.52 213.613 379.145L213.663 378.696C213.74 378.006 213.816 377.316 213.893 376.626L214.203 373.847C217.835 341.333 221.052 311.538 224.035 282.761L225.501 268.562L225.654 267.08C227.06 253.493 228.514 239.442 229.727 225.603C230.408 217.842 231.063 209.798 231.73 201.01C232.152 195.446 232.457 189.547 232.661 182.977C233.047 182.591 233.323 182.108 233.46 181.579C233.597 181.05 233.59 180.494 233.441 179.969C233.273 179.384 233.068 178.75 232.794 177.976L232.804 177.542C232.815 177.072 232.827 176.539 232.837 176.022C232.84 175.917 232.822 175.813 232.784 175.715C232.745 175.617 232.688 175.529 232.614 175.454C232.426 175.271 232.174 175.17 231.912 175.172C231.848 175.172 231.784 175.178 231.721 175.191C231.377 174.357 231.014 173.513 230.662 172.697L230.659 172.688C230.084 171.352 229.49 169.972 228.97 168.615C228.626 167.717 228.291 166.786 227.969 165.886C227.007 163.209 226.014 160.442 224.585 158.001C224.57 157.974 224.548 157.951 224.521 157.935C224.494 157.92 224.464 157.911 224.433 157.911C224.383 157.91 224.335 157.929 224.3 157.963C224.264 157.997 224.243 158.044 224.242 158.094C224.194 160.924 224.688 163.828 225.165 166.637V166.639C225.327 167.591 225.495 168.576 225.636 169.534C225.848 170.966 226.008 172.456 226.163 173.896V173.899C226.378 176.287 226.717 178.663 227.18 181.015C227.198 181.189 227.23 181.36 227.278 181.528L227.318 181.656C227.492 182.186 227.794 182.664 228.198 183.05C228.601 183.435 229.094 183.714 229.631 183.864C229.23 186.084 228.933 187.895 228.696 189.562C228.254 192.675 227.854 195.75 227.389 199.409L226.889 203.352C226.478 206.585 226.038 210.127 225.504 214.5C224.35 214.978 223.169 215.387 221.966 215.726C219.183 216.522 216.363 216.842 213.477 217.125C208.607 217.603 203.629 217.871 198.814 218.13H198.789C197.842 218.18 196.862 218.233 195.9 218.287L194.645 218.358C191.337 218.547 188.357 218.639 185.537 218.639C181.975 218.652 178.414 218.481 174.87 218.127C171.611 217.792 168.381 217.226 165.204 216.431C164.411 216.234 163.617 215.982 162.849 215.739C162.052 215.487 161.23 215.226 160.41 215.026C159.897 214.868 159.412 214.635 158.969 214.333L158.863 214.269C158.612 213.949 158.255 213.731 157.857 213.653L157.738 213.633L157.62 213.616L157.581 213.597L157.584 213.61C157.421 213.588 157.257 213.577 157.092 213.577C156.943 213.576 156.794 213.586 156.646 213.606C156.548 211.203 156.414 208.044 156.241 204.913C156.151 203.275 156.025 201.59 155.903 199.96V199.956C155.44 193.778 154.963 187.39 156.209 181.302C156.217 181.271 156.217 181.24 156.211 181.209C156.204 181.179 156.191 181.15 156.171 181.125C156.148 181.097 156.117 181.076 156.082 181.063C156.048 181.051 156.01 181.048 155.974 181.055C155.938 181.062 155.904 181.079 155.876 181.103C155.849 181.127 155.828 181.159 155.817 181.194C153.114 188.313 153.032 196.067 152.953 203.565C152.942 204.655 152.929 205.781 152.91 206.883C152.783 213.845 152.826 220.927 152.867 227.776C152.875 229.188 152.884 230.649 152.891 232.104C152.293 232.343 151.757 232.717 151.327 233.196C150.821 233.784 150.562 234.545 150.602 235.32C150.616 235.603 150.688 235.88 150.813 236.135C150.937 236.39 151.112 236.617 151.327 236.802C151.795 237.202 152.335 237.51 152.918 237.709C152.948 244.989 153 252.361 153.073 259.619C152.713 259.921 152.427 260.303 152.239 260.734C152.051 261.166 151.966 261.635 151.991 262.105C151.991 262.535 152.094 262.958 152.292 263.339C152.489 263.721 152.775 264.049 153.126 264.298C153.308 280.783 153.576 297.544 153.835 313.753V313.77C153.948 320.802 154.064 328.074 154.173 335.249L154.92 384.864C154.959 387.396 155.006 389.963 155.053 392.445C155.129 396.459 155.207 400.61 155.243 404.694L155.196 404.713L155.031 404.789C154.737 404.927 154.337 405.136 154.253 405.347C154.235 405.387 154.226 405.429 154.227 405.472C153.737 405.548 153.283 405.775 152.929 406.122C152.71 406.326 152.537 406.576 152.425 406.854C152.313 407.132 152.263 407.432 152.28 407.731C152.316 408.328 152.544 408.896 152.929 409.353L153.135 409.602C153.356 409.839 153.625 410.025 153.925 410.149C154.224 410.272 154.546 410.331 154.87 410.32C155.002 410.32 155.133 410.31 155.264 410.29C155.261 411.627 155.257 412.987 155.252 414.302V414.316C155.243 417.05 155.234 419.878 155.243 422.666C155.247 423.971 155.267 425.254 155.288 426.447L155.34 429.468C155.326 430.379 155.436 431.287 155.667 432.169C155.77 432.602 155.97 433.005 156.251 433.35C156.533 433.694 156.889 433.97 157.293 434.157C157.802 434.391 158.355 434.515 158.916 434.523ZM203.424 408.774L202.754 413.617C202.381 416.317 202.071 418.585 201.773 420.887C200.251 420.678 198.698 420.556 197.197 420.437H197.194C196.603 420.39 195.988 420.342 195.39 420.289C191.692 419.961 187.893 419.804 184.541 419.666H184.537C182.418 419.579 180.268 419.472 178.189 419.368C173.145 419.118 167.929 418.858 162.806 418.858C162.549 418.858 162.298 418.858 162.057 418.858C161.976 418.858 161.899 418.864 161.835 418.87L161.464 409.313L166.722 409.306C171.184 409.299 175.711 409.26 180.088 409.223C181.2 409.213 182.357 409.206 183.378 409.199H183.4C186.261 409.18 189.22 409.16 192.129 409.099L193.849 409.06C194.812 409.034 195.786 409.033 196.817 409.032H196.822C199.025 409.073 201.228 408.987 203.421 408.775L203.424 408.774ZM205.14 395.122C204.724 398.782 204.36 401.776 203.995 404.545C202.184 404.328 200.36 404.23 198.536 404.251C197.787 404.251 197.057 404.26 196.35 404.268H196.344C195.642 404.277 194.917 404.286 194.201 404.286C193.949 404.286 193.72 404.286 193.502 404.282L193.066 404.277C191.439 404.249 189.706 404.238 187.612 404.238C186.117 404.238 184.596 404.244 183.126 404.251H183.115C181.871 404.256 180.584 404.262 179.305 404.263C173.877 404.269 169.38 404.288 165.151 404.322L161.275 404.354L161.267 404.159C161.168 401.456 161.09 398.515 161.023 394.903C161.284 394.934 161.489 394.951 161.688 394.959C162.198 394.98 162.701 394.983 163.082 394.983C163.305 394.983 163.527 394.983 163.735 394.981H163.836C164.016 394.981 164.195 394.981 164.375 394.981C164.543 394.981 164.69 394.981 164.822 394.981C166.758 394.998 169.045 395.015 171.332 395.015H171.569C175.938 395.015 180.389 395.042 184.8 395.094C185.931 395.108 187.082 395.123 188.195 395.138H188.263H188.294C191.64 395.183 195.101 395.23 198.505 395.236H198.733C200.962 395.238 203.278 395.173 205.139 395.121L205.14 395.122ZM206.845 379.855C206.514 382.712 206.194 385.621 205.884 388.435L205.882 388.455L205.876 388.508C205.784 389.34 205.692 390.172 205.6 391.005C205.319 390.961 205.039 390.926 204.768 390.897C202.302 390.639 200.125 390.453 198.113 390.328C193.556 390.045 189.02 389.902 184.798 389.789C180.247 389.667 175.635 389.572 171.089 389.508C169.942 389.492 168.738 389.484 167.409 389.484C166.51 389.484 165.535 389.488 164.43 389.495H164.095H163.594H163.555C163.38 389.495 163.206 389.495 163.031 389.495C162.512 389.495 161.9 389.501 161.297 389.541C161.178 389.549 161.068 389.561 160.937 389.576L160.858 383.994C160.845 383.084 160.83 382.145 160.815 381.204C162.905 381.332 164.966 381.349 166.707 381.349C167.442 381.349 168.186 381.346 168.907 381.342H168.919H169.116C169.758 381.339 170.423 381.336 171.081 381.336H171.167H171.955C172.507 381.339 173.075 381.34 173.647 381.34C176.951 381.34 180.521 381.298 184.884 381.207C190.109 381.098 194.341 380.931 198.2 380.685C200.014 380.569 201.823 380.412 203.57 380.219L204.464 380.117C204.836 380.073 205.221 380.033 205.593 379.994C206.001 379.949 206.425 379.905 206.844 379.854L206.845 379.855ZM208.526 365.288C208.402 366.371 208.277 367.454 208.152 368.536C207.86 371.07 207.529 373.943 207.209 376.703C206.612 376.675 206.01 376.663 205.427 376.651H205.414C204.972 376.641 204.516 376.632 204.073 376.616C201.863 376.537 199.666 376.522 197.809 376.518C197.285 376.518 196.761 376.518 196.208 376.518C194.535 376.518 192.789 376.524 191.249 376.528C189.364 376.535 187.794 376.539 186.178 376.539H184.884C180.318 376.529 175.801 376.451 171.565 376.371C170.052 376.343 168.512 376.278 167.022 376.214C165.019 376.129 162.947 376.041 160.914 376.041H160.717L160.46 364.104C168.001 364.702 175.873 365.023 185.233 365.115L186.477 365.126C188.904 365.145 191.376 365.191 193.767 365.235C196.881 365.294 200.102 365.354 203.276 365.354C205.172 365.352 206.888 365.331 208.525 365.288L208.526 365.288ZM210.433 348.676C209.876 353.557 209.292 358.646 208.698 363.799C205.205 363.37 201.643 363.013 198.199 362.668C194.436 362.291 190.545 361.901 186.735 361.417L180.137 360.574C173.81 359.767 167.07 358.918 160.335 358.211L160.113 347.868C161.085 348.127 162.088 348.255 163.095 348.249H163.138L163.441 348.262L166.64 348.42C167.867 348.48 169.483 348.556 171.09 348.615C176.046 348.796 181.037 348.967 185.925 349.122C189.739 349.243 192.818 349.3 195.614 349.3C197.578 349.3 199.389 349.272 201.153 349.217C203.801 349.133 206.228 348.997 208.573 348.801C208.963 348.769 209.361 348.743 209.746 348.718H209.772C209.987 348.706 210.21 348.691 210.431 348.676L210.433 348.676ZM212.331 331.998C211.894 335.864 211.435 339.887 211.03 343.436L210.702 346.314C210.323 346.254 209.938 346.2 209.566 346.147H209.562H209.551C209.1 346.083 208.633 346.017 208.189 345.942C206.327 345.627 204.34 345.347 201.933 345.059C197.955 344.582 193.614 344.18 188.267 343.793C185.67 343.604 183.029 343.429 180.474 343.26L180.442 343.258L180.391 343.255C178.366 343.121 176.271 342.982 174.213 342.838L170.896 342.604C169.597 342.514 168.543 342.446 167.578 342.385C166.981 342.348 166.368 342.337 165.717 342.324C164.343 342.344 162.97 342.231 161.617 341.989C161.291 341.853 160.941 341.784 160.587 341.785C160.384 341.785 160.181 341.807 159.982 341.85L159.759 331.458C160.87 331.69 162.001 331.813 163.135 331.824C163.478 331.839 163.801 331.853 164.116 331.873L164.366 331.89C166.588 332.059 168.958 332.166 172.049 332.245C176.552 332.356 181.482 332.427 187.122 332.462L190.144 332.481C191.507 332.488 193.122 332.497 194.77 332.497C197.626 332.497 199.996 332.473 202.227 332.42C204.716 332.363 207.207 332.243 209.972 332.105C210.349 332.086 210.738 332.07 211.116 332.054H211.149C211.534 332.032 211.934 332.016 212.33 331.996L212.331 331.998ZM214.14 315.737C213.607 320.589 213.12 324.968 212.653 329.125C212.166 329.072 211.679 329.025 211.207 328.981C210.822 328.944 210.385 328.902 209.972 328.859C207.11 328.556 204.722 328.309 202.226 328.112C197.635 327.75 192.961 327.521 188.442 327.297H188.436L187.509 327.251C184.751 327.114 181.956 327.001 179.253 326.892H179.233C177.004 326.802 174.699 326.709 172.433 326.603C169.485 326.466 167.234 326.317 165.132 326.124C164.572 326.072 163.988 325.976 163.368 325.875H163.363C162.404 325.691 161.432 325.584 160.457 325.555C160.181 325.554 159.905 325.57 159.631 325.602C159.557 322.214 159.478 318.695 159.408 315.59L159.389 314.749C159.371 313.915 159.352 313.08 159.333 312.246C159.592 312.55 159.91 312.8 160.266 312.981C160.623 313.162 161.012 313.27 161.411 313.299C164.696 313.725 168.09 313.893 171.372 314.056C172.595 314.116 173.856 314.179 175.096 314.253L175.897 314.303C180.17 314.585 184.513 314.816 188.711 315.037L189.99 315.105C194.678 315.354 199.552 315.567 204.476 315.739C205.778 315.784 207.122 315.806 208.59 315.806C209.246 315.806 209.937 315.801 210.644 315.792L211.524 315.779C211.815 315.774 212.117 315.771 212.426 315.768C212.988 315.761 213.565 315.756 214.14 315.737ZM215.985 298.784C215.447 303.762 214.908 308.723 214.381 313.529C213.64 313.389 212.896 313.275 212.177 313.164C211.95 313.129 211.726 313.094 211.504 313.06L211.385 313.041C209.125 312.686 206.79 312.318 204.48 312.053C199.48 311.477 194.87 310.985 190.385 310.55L189.155 310.432L188.785 310.396H188.768C185.343 310.063 181.801 309.719 178.315 309.41L175.899 309.201C174.398 309.075 172.865 308.921 171.382 308.771H171.376C168.106 308.442 164.724 308.101 161.413 308.033H161.369C160.957 308.04 160.553 308.143 160.188 308.334C159.823 308.525 159.507 308.798 159.266 309.132C159.158 304.394 159.05 299.761 158.938 295.037C159.017 295.161 159.11 295.275 159.214 295.379C160.924 297.067 162.996 297.192 165.191 297.323C165.546 297.345 165.911 297.366 166.279 297.395L166.44 297.408C169.301 297.649 171.833 297.848 174.18 298.017C179.65 298.411 185.085 298.676 189.68 298.885C194.714 299.111 198.563 299.212 202.159 299.212C203.33 299.212 204.483 299.2 205.586 299.178C206.254 299.164 206.941 299.153 207.605 299.143C210.36 299.095 213.206 299.05 215.985 298.784ZM217.825 281.751L216.327 295.624C213.803 295.26 211.201 295.061 208.681 294.868H208.679C207.772 294.799 206.837 294.727 205.927 294.65L205.198 294.585C201.167 294.218 197.057 293.946 193.081 293.683L192.978 293.676C192.024 293.613 191.037 293.548 190.067 293.482C184.744 293.122 179.492 292.687 174.567 292.272L174.439 292.262C171.945 292.052 169.367 291.835 166.825 291.602L166.507 291.57C166.179 291.536 165.851 291.496 165.533 291.458C164.715 291.341 163.89 291.274 163.063 291.256C161.845 291.214 160.643 291.547 159.621 292.211C159.315 292.415 159.063 292.692 158.889 293.016C158.866 292.058 158.844 291.1 158.821 290.142L158.818 290.024C158.749 287.104 158.678 284.085 158.604 281.099C159.279 281.17 159.958 281.201 160.637 281.192H161.064H161.067H161.462C161.692 281.192 161.994 281.192 162.286 281.203C165.404 281.304 168.512 281.398 170.872 281.467L188.047 281.974C192.148 282.095 196.997 282.219 201.868 282.219C203.151 282.219 204.411 282.21 205.614 282.193C206.123 282.186 206.658 282.18 207.087 282.175H207.094C209.145 282.151 211.264 282.126 213.344 282.013L214.2 281.961C214.595 281.935 215.015 281.917 215.462 281.898C216.23 281.866 217.026 281.833 217.825 281.751ZM219.657 264.945C219.137 269.668 218.612 274.483 218.095 279.257C217.225 279.095 216.344 278.996 215.493 278.902H215.491C215.143 278.862 214.781 278.823 214.448 278.78L214.199 278.746C211.834 278.421 209.414 278.211 207.072 278.007L206.999 278.001L206.002 277.913C200.325 277.413 194.726 277.113 189.999 276.886C186.364 276.711 182.676 276.552 179.11 276.398L178.894 276.388C177.16 276.313 175.367 276.236 173.605 276.157L168.14 275.913C167.128 275.868 166.234 275.829 165.408 275.795C164.674 275.764 163.939 275.733 163.205 275.703L163.072 275.698L161.504 275.633C161.295 275.625 161.08 275.609 160.871 275.594H160.86C160.53 275.57 160.188 275.546 159.855 275.546C159.748 275.546 159.65 275.548 159.553 275.553L159.37 275.529C159.298 275.519 159.229 275.511 159.143 275.502C158.97 275.37 158.781 275.26 158.58 275.175L158.459 275.128L158.205 264.913C169.736 265.377 180.003 265.665 189.593 265.794C191.41 265.818 193.305 265.83 195.227 265.83C198.929 265.83 202.865 265.786 207.26 265.694C209.852 265.639 212.437 265.514 214.944 265.323L215.9 265.244C216.387 265.205 216.896 265.165 217.388 265.13H217.391C218.13 265.074 218.896 265.018 219.657 264.945V264.945ZM221.372 249.568C220.883 253.895 220.398 258.23 219.933 262.453C218.952 262.341 217.961 262.262 217.006 262.185H216.99C216.5 262.146 215.992 262.106 215.507 262.061C212.101 261.756 209.356 261.56 206.868 261.446L201.112 261.179C197.423 261.008 193.475 260.831 189.595 260.689C178.039 260.268 167.726 259.822 158.066 259.33C157.995 256.57 157.92 253.71 157.836 250.59C158.117 250.883 158.456 251.114 158.832 251.268C159.207 251.422 159.611 251.495 160.017 251.482H160.027C163.036 251.474 166.098 251.473 169.058 251.472H169.159C177.014 251.469 185.137 251.467 193.122 251.335C201.825 251.191 206.537 250.988 209.669 250.828C212.205 250.697 214.85 250.438 217.758 250.036C218.219 249.972 218.687 249.918 219.183 249.858H219.19C219.903 249.771 220.643 249.684 221.372 249.567L221.372 249.568ZM223.138 234.267C222.632 238.557 222.118 242.998 221.61 247.466C220.698 247.304 219.768 247.19 218.869 247.084H218.866C218.407 247.028 217.974 246.976 217.547 246.918C214.503 246.504 211.797 246.234 209.274 246.09C203.545 245.767 197.893 245.62 193.12 245.518C185.112 245.348 176.97 245.302 169.095 245.257H169.062C166.1 245.24 163.036 245.223 160.025 245.199H159.994C159.562 245.183 159.132 245.267 158.737 245.442C158.342 245.618 157.992 245.881 157.714 246.213C157.642 243.634 157.563 240.938 157.474 237.972C157.87 237.931 158.27 237.882 158.657 237.834C159.327 237.752 159.958 237.677 160.572 237.632C163.597 237.421 166.63 237.228 169.588 237.059C175.441 236.723 181.601 236.415 188.419 236.119C194.428 235.857 200.869 235.583 207.261 235.346L210.008 235.245C214.399 235.142 218.78 234.816 223.137 234.266L223.138 234.267ZM225.113 217.701C224.572 222.172 224.047 226.575 223.512 231.066L223.351 232.446C218.113 231.428 212.531 231.125 207.262 230.901C201.223 230.644 195.274 230.513 189.581 230.513C189.206 230.513 188.816 230.513 188.42 230.513C182.338 230.531 176.002 230.675 169.589 230.94C166.46 231.07 163.295 231.221 160.182 231.39C159.628 231.42 159.016 231.42 158.368 231.42H158.35C157.999 231.42 157.635 231.42 157.27 231.426C157.261 231.16 157.253 230.893 157.245 230.626V230.594C157.232 230.178 157.219 229.749 157.206 229.326C157.179 228.531 157.153 227.735 157.127 226.94V226.901C157.064 225.011 156.992 222.869 156.922 220.817C158.693 221.727 160.891 222.18 162.831 222.579C163.197 222.655 163.574 222.732 163.929 222.81L164.172 222.863C167.699 223.639 171.274 224.179 174.873 224.48C177.638 224.721 180.581 224.843 183.619 224.843C187.446 224.843 191.527 224.656 196.095 224.269L197.329 224.163C203.069 223.666 209.714 223.002 215.928 221.416C218.85 220.723 221.666 219.637 224.298 218.188C224.587 218.019 224.855 217.859 225.113 217.701ZM360.009 432.867C360.753 432.883 361.474 432.606 362.015 432.096C362.557 431.585 362.877 430.882 362.906 430.139C363.738 418.917 364.02 407.027 363.768 393.783C363.566 383.12 363.019 371.572 362.049 357.441C361.284 346.295 360.233 335.387 358.926 325.019C357.536 313.984 355.805 303.164 353.783 292.858L353.418 291.011C351.659 282.14 349.456 271.685 346.458 261.431C343.301 250.633 339.665 241.414 335.342 233.246C331.289 225.645 326.204 218.641 320.231 212.434C308.597 200.402 294.31 191.257 278.511 185.73C270.403 182.977 262.44 181.581 254.844 181.581C254.009 181.581 253.167 181.598 252.342 181.632C252.252 181.638 252.168 181.676 252.105 181.739C252.042 181.802 252.004 181.887 251.998 181.976C251.988 182.055 252.008 182.135 252.055 182.199C252.101 182.263 252.17 182.307 252.248 182.322C257.322 183.455 261.738 184.577 265.747 185.752C270.208 187.038 274.595 188.572 278.885 190.347C287.476 193.944 295.527 198.714 302.808 204.521C309.453 209.842 315.412 215.968 320.546 222.759C325.678 229.55 329.99 236.924 333.392 244.728C335.379 249.322 337.12 254.02 338.607 258.799C339.943 263.028 341.23 267.622 342.657 273.256C343.923 278.256 345.121 283.453 346.218 288.703C347.27 293.739 348.263 298.979 349.167 304.279C350.857 314.188 352.282 324.624 353.397 335.297C354.435 345.217 355.247 355.72 355.81 366.512C356.426 378.314 356.559 390.316 356.689 401.923V401.929C356.793 411.175 356.9 420.737 357.25 430.139C357.25 430.524 357.329 430.905 357.484 431.258C357.638 431.611 357.863 431.928 358.146 432.19C358.663 432.636 359.326 432.877 360.009 432.867ZM90.2867 430.16C91.0997 430.156 91.8921 429.904 92.5577 429.438C93.2302 428.986 93.7017 428.291 93.8734 427.5C95.6539 418.451 97.2377 408.874 98.8582 397.361C100.108 388.478 101.209 379.483 102.131 370.627C103.059 361.705 103.832 352.677 104.427 343.791C105.024 334.881 105.401 325.789 105.548 316.775C105.612 312.847 105.526 308.738 105.285 304.215L105.231 303.251C105.192 302.572 105.159 301.875 105.127 301.201V301.182C104.958 297.581 104.783 293.857 103.59 290.436C103.576 290.39 103.548 290.35 103.509 290.322C103.471 290.294 103.425 290.278 103.377 290.278C103.329 290.278 103.283 290.294 103.244 290.322C103.206 290.35 103.177 290.39 103.162 290.436C101.868 294.058 101.573 298.07 101.288 301.948C101.218 302.895 101.146 303.872 101.061 304.816L101.027 305.182C100.602 309.677 100.291 314.11 100.018 318.232L99.9105 319.866C98.555 340.686 97.0358 357.582 95.1303 373.037C92.7493 392.344 89.4556 411.25 86.8507 425.563C86.6653 426.499 86.7972 427.47 87.2256 428.323C87.5214 428.878 87.9625 429.343 88.5019 429.666C89.0412 429.99 89.6584 430.161 90.2875 430.161L90.2867 430.16ZM279.572 428.761C280.245 428.748 280.896 428.52 281.43 428.112C281.972 427.713 282.391 427.169 282.636 426.542C282.825 426.062 282.869 425.537 282.764 425.032C282.628 424.465 282.314 423.958 281.868 423.584C279.268 421.292 276.551 419.035 273.923 416.853L273.92 416.85L273.913 416.844C272.399 415.587 270.833 414.287 269.309 412.995L267.484 411.448C264.155 408.637 260.574 405.712 256.613 403.567C256.581 403.55 256.545 403.54 256.509 403.54C256.467 403.541 256.426 403.552 256.39 403.574C256.354 403.595 256.324 403.625 256.304 403.661C256.285 403.694 256.276 403.73 256.277 403.767C256.279 403.804 256.29 403.84 256.31 403.871C258.93 408.129 262.457 411.851 265.868 415.451L266.347 415.957C267.72 417.408 269.104 418.899 270.443 420.341V420.343C272.757 422.837 275.15 425.416 277.573 427.874C277.829 428.149 278.138 428.37 278.482 428.523C278.825 428.675 279.197 428.756 279.572 428.761V428.761ZM100.896 428.518C101.932 428.505 102.925 428.099 103.674 427.383C105.121 426.087 106.533 424.675 107.897 423.309L107.9 423.307L107.905 423.302C108.415 422.792 108.942 422.264 109.463 421.751L110.038 421.188C112.32 418.97 114.267 416.936 115.991 414.972L117.703 413.025C120.894 409.386 124.192 405.486 126.373 401.336C126.405 401.281 126.422 401.219 126.423 401.155C126.423 401.091 126.406 401.029 126.375 400.974C126.34 400.918 126.292 400.873 126.235 400.842C126.178 400.81 126.113 400.794 126.048 400.795C125.954 400.795 125.864 400.829 125.792 400.889C124.487 401.95 123.243 403.15 122.04 404.31L122.037 404.313C121.201 405.119 120.337 405.953 119.461 406.731C117.553 408.426 115.468 410.126 112.898 412.075C110.551 413.856 108.213 415.514 105.947 417.004C104.123 418.161 102.24 419.224 100.306 420.188L100.238 420.224L99.8832 420.408C99.3814 420.473 98.8975 420.638 98.46 420.892C98.0224 421.146 97.64 421.485 97.3351 421.889C96.6755 422.779 96.3827 423.889 96.517 424.988C96.5523 425.408 96.6705 425.817 96.8648 426.191C97.0591 426.565 97.3256 426.897 97.6489 427.167L97.9277 427.385C98.7619 428.085 99.8074 428.484 100.896 428.517V428.518ZM63.8407 424.814C64.3029 424.822 64.7621 424.739 65.1916 424.568C65.6211 424.397 66.0123 424.143 66.3424 423.819C66.5903 423.556 66.7807 423.245 66.9015 422.904C67.0223 422.564 67.0707 422.202 67.0438 421.842C67.1947 420.659 67.2392 419.466 67.1767 418.275C67.2054 418.11 67.2342 417.955 67.265 417.802C67.3527 417.377 67.2936 416.934 67.0974 416.546C67.071 416.022 67.0418 415.414 67.0324 414.831C66.9929 412.355 67.0016 410.107 67.0611 407.958C67.1897 403.314 67.3651 398.831 67.5816 393.452C68.0042 382.935 68.5641 373.463 69.2931 364.493C69.9807 356.026 70.8639 347.559 71.9181 339.327C73.002 330.864 74.2948 322.426 75.7615 314.246C77.2688 305.839 78.9992 297.481 80.9055 289.402C82.8635 281.105 85.0599 272.879 87.4334 264.953C88.5859 261.105 89.8306 257.349 91.1336 253.789C92.5136 250.014 94.0055 246.34 95.5632 242.868C97.2046 239.21 98.9717 235.664 100.815 232.328C102.747 228.832 104.822 225.461 106.982 222.31C108.929 219.469 111.043 216.676 113.266 214.009C115.458 211.38 117.822 208.794 120.291 206.324C123.073 203.541 125.625 201.156 128.091 199.034C130.775 196.699 133.604 194.535 136.561 192.557C136.637 192.503 136.693 192.427 136.723 192.339C136.752 192.251 136.752 192.156 136.723 192.068C136.705 191.991 136.661 191.921 136.599 191.871C136.538 191.821 136.461 191.792 136.382 191.789C136.336 191.79 136.29 191.798 136.247 191.813L135.414 192.102C132.19 193.222 128.475 194.579 125.191 196.514C121.82 198.547 118.632 200.87 115.664 203.456C112.56 206.131 109.676 209.052 107.04 212.19C104.404 215.328 101.955 218.617 99.7046 222.042C97.467 225.444 95.4173 228.966 93.5647 232.593C91.7964 236.04 90.0892 239.777 88.4904 243.7C85.4641 251.27 82.8479 258.997 80.6532 266.848C76.2374 282.185 72.48 298.756 69.1658 317.511C67.6281 326.221 66.2643 334.995 65.115 343.589C63.9421 352.363 62.9596 361.187 62.1955 369.818C61.4326 378.434 60.9161 387.155 60.6606 395.74C60.521 400.426 60.536 405.123 60.5695 409.102C60.5774 410.094 60.5738 411.154 60.5581 412.538L60.5143 415.975C60.5088 416.478 60.4907 417 60.4725 417.5V417.503C60.4126 419.185 60.3507 420.924 60.7485 422.554C60.909 423.252 61.3301 423.863 61.9258 424.262C62.4965 424.629 63.1622 424.82 63.8407 424.813V424.814ZM158.703 190.228C159.283 190.228 159.849 190.044 160.318 189.703C160.787 189.361 161.135 188.88 161.314 188.328C162.869 184.433 164.049 180.397 164.835 176.277C165.234 174.266 165.502 172.231 165.639 170.186C165.655 169.877 165.675 169.57 165.697 169.246C165.797 167.734 165.902 166.17 165.544 164.759C165.525 164.696 165.486 164.641 165.433 164.603C165.38 164.564 165.315 164.544 165.25 164.546C165.2 164.545 165.15 164.557 165.106 164.582C165.063 164.608 165.027 164.644 165.003 164.688C164.49 165.763 164.094 166.889 163.82 168.048C163.654 168.653 163.482 169.278 163.282 169.867C163.108 170.375 162.935 170.892 162.769 171.393L162.765 171.406V171.408C162.333 172.698 161.887 174.033 161.393 175.327C159.975 179.082 158.254 182.715 156.248 186.191C155.993 186.576 155.847 187.022 155.827 187.483C155.807 187.944 155.913 188.402 156.134 188.807C156.393 189.245 156.768 189.603 157.218 189.843C157.673 190.093 158.184 190.225 158.703 190.228Z" fill="#282A2B"/>
<path d="M129.846 96.4056C130.695 88.948 129.597 73.3602 129.523 72.4132C129.058 66.4262 131.863 42.7847 137.166 44.963C146.062 37.9222 157.909 36.3672 168.988 35.6244C192.001 34.0812 216.482 37.6237 234.252 53.1106C243.04 61.1537 251.595 72.8508 250.907 85.0306C258.891 96.5756 270.148 112.413 260.2 125.909C256.818 130.221 251.444 131.827 247.196 135.093C238.651 141.985 233.291 151.875 224.665 158.726C201.814 179.261 163.011 183.551 140.559 160.194C123.197 143.28 126.004 117.972 129.058 96.4068C131.111 81.9084 128.191 110.954 129.846 96.4056Z" fill="white"/>
<path d="M172.119 176.944C174.631 176.938 177.138 176.754 179.623 176.392C182.511 176.007 185.351 175.32 188.096 174.342C189.511 173.832 190.848 173.126 192.067 172.244C193.271 171.35 194.357 170.307 195.3 169.141C195.561 168.787 195.724 168.369 195.77 167.932C195.817 167.494 195.747 167.052 195.566 166.65C195.448 166.37 195.248 166.131 194.993 165.965C194.738 165.799 194.439 165.714 194.134 165.719C194.052 165.719 193.97 165.724 193.889 165.734C191.082 166.024 188.308 166.569 185.6 167.36L185.205 167.485C182.447 168.391 179.6 169.002 176.712 169.307C175.256 169.448 173.779 169.519 172.322 169.519C167.859 169.529 163.421 168.852 159.163 167.513C156.865 166.781 154.642 165.833 152.523 164.683C150.404 163.531 148.391 162.194 146.508 160.688C142.734 157.667 139.501 154.028 136.946 149.924C134.179 145.482 132.344 140.457 131.338 134.564C130.371 128.901 130.28 123.071 130.319 118.115C130.409 106.329 130.792 93.9988 131.459 81.4669L131.569 79.4329C131.851 74.2723 132.216 67.4665 132.534 60.5829C132.641 58.2772 132.792 56.3942 133.012 54.6571C135.324 53.3541 137.266 51.4827 138.654 49.2201C141.272 50.2683 143.966 51.1158 146.713 51.7552C150.478 52.6873 154.343 53.1619 158.222 53.1687C160.489 53.1694 162.754 53.0003 164.996 52.6629C166.629 53.3371 168.317 53.9387 170.015 54.4513C170.488 54.6602 170.95 54.8621 171.395 55.0517C175.47 56.8265 179.68 58.2741 183.984 59.3808L185.049 59.6461C187.4 60.2755 189.801 60.7064 192.224 60.9342C192.648 61.0949 193.081 61.2279 193.522 61.3324C195.15 61.7264 196.82 61.9249 198.495 61.9238C199.089 61.9238 199.691 61.8986 200.283 61.8493C200.84 61.8079 201.377 61.6277 201.846 61.3252C202.315 61.0226 202.701 60.6073 202.968 60.1173C203.183 59.7091 203.291 59.2534 203.283 58.7922C203.27 58.2835 203.126 57.7869 202.864 57.3507C201.988 55.847 201.084 54.3148 200.179 52.7969C203.329 54.0969 206.555 55.2054 209.839 56.1163C212.754 56.9371 215.935 57.7115 219.85 58.5528C220.738 58.7425 221.644 58.9238 222.519 59.0997H222.522H222.525C223.414 59.2783 224.334 59.4628 225.235 59.6552C225.52 59.7159 225.839 59.7699 226.176 59.8271C227.368 60.029 228.717 60.2577 229.529 60.9129C230.425 61.6321 230.815 63.0676 231.16 64.3344C231.258 64.694 231.351 65.0338 231.449 65.3327C232.062 67.1763 232.588 68.8866 233.058 70.5607C234.038 74.0734 234.841 77.6333 235.463 81.2268C236.082 84.8288 236.507 88.4612 236.737 92.1087C236.833 93.6108 236.872 95.1418 236.91 96.6223C236.965 98.732 237.021 100.913 237.241 103.046C237.297 103.648 237.567 104.211 238.002 104.632C238.403 105.016 238.935 105.231 239.49 105.234C240.064 105.225 240.613 105.005 241.034 104.615C241.206 104.463 241.389 104.299 241.572 104.137L241.838 103.893C243.165 102.731 244.376 101.442 245.453 100.045C245.639 99.7906 245.821 99.5189 245.994 99.237C246.023 99.2369 246.05 99.2274 246.073 99.2098L246.362 98.9918C249.403 96.7279 252.02 95.5802 254.141 95.5802C254.886 95.5671 255.623 95.7314 256.292 96.0594C256.961 96.3874 257.542 96.8698 257.988 97.4668C259.001 98.7513 259.51 100.411 259.907 101.865L260.645 104.625C261.148 106.421 261.546 108.244 261.836 110.085C262.171 112.209 262.176 114.371 261.852 116.496C261.547 118.627 260.66 120.632 259.289 122.292C258.162 123.644 256.581 124.539 254.842 124.811C254.588 124.846 254.331 124.862 254.075 124.861C253.484 124.848 252.894 124.796 252.31 124.706H252.3C252.18 124.69 252.06 124.674 251.94 124.659C251.695 124.629 251.448 124.615 251.202 124.617C250.941 124.617 250.678 124.629 250.423 124.641H250.421C250.164 124.653 249.899 124.665 249.636 124.665C249.414 124.665 249.216 124.656 249.03 124.639C248.97 124.633 248.91 124.63 248.851 124.63C248.576 124.629 248.305 124.7 248.066 124.838C247.828 124.975 247.629 125.173 247.492 125.412C247.3 125.728 247.188 126.086 247.167 126.455C247.146 126.824 247.216 127.193 247.37 127.529C247.662 128.123 248.035 128.673 248.478 129.165C248.137 129.46 247.812 129.773 247.504 130.103C246.55 130.433 245.722 131.052 245.135 131.873C244.656 132.508 244.376 133.271 244.331 134.066C244.281 134.241 244.234 134.429 244.185 134.657L243.339 136.029C243.131 136.365 242.949 136.656 242.781 136.92C240.699 140.238 238.172 143.255 235.27 145.887C234.212 146.85 233.101 147.791 232.029 148.702C230.146 150.246 228.342 151.885 226.624 153.611L226.308 153.943C224.988 155.246 223.849 156.72 222.921 158.327C221.957 160.15 221.704 161.878 222.146 163.61C222.263 163.978 222.491 164.3 222.8 164.531C223.109 164.762 223.482 164.891 223.868 164.899C224.157 164.902 224.44 164.811 224.673 164.639C226.401 163.357 227.64 161.591 228.839 159.884C229.634 158.693 230.513 157.56 231.47 156.494C232.749 155.135 234.121 153.824 235.447 152.557C236.737 151.325 238.071 150.05 239.319 148.733C241.685 146.229 243.613 143.346 245.024 140.204C245.872 141.024 247.004 141.487 248.185 141.496C249.035 141.491 249.865 141.235 250.571 140.762C251.28 140.291 251.854 139.644 252.236 138.883C252.784 139.129 253.346 139.343 253.92 139.521C254.241 139.622 254.575 139.674 254.912 139.676C255.412 139.672 255.903 139.54 256.338 139.292C256.773 139.044 257.137 138.689 257.396 138.261C257.728 137.738 257.928 137.142 257.979 136.524C258.036 135.885 257.928 135.241 257.663 134.656C257.104 133.391 256.329 132.233 255.373 131.234C258.304 130.796 261.031 129.471 263.188 127.437C265.488 125.121 267.027 122.158 267.599 118.945C267.909 117.349 268.055 115.727 268.032 114.102C268.011 112.477 267.86 110.858 267.58 109.257C266.986 105.864 266.027 102.545 264.722 99.3573C264.475 98.7533 264.236 98.2139 263.993 97.7128C264.068 97.7117 264.142 97.6942 264.209 97.6615C264.276 97.6288 264.336 97.5817 264.383 97.5236C264.681 97.1171 265.004 96.7307 265.318 96.3573C265.961 95.6523 266.513 94.8693 266.962 94.0268C267.093 93.7579 267.229 93.4835 267.361 93.2181C267.855 92.2675 268.298 91.2911 268.688 90.2931C269.719 87.5099 270.167 84.3936 270.443 81.9898C271.049 76.3762 270.893 70.7063 269.977 65.1348C269.24 60.3728 267.995 55.7036 266.261 51.2076C264.536 46.7306 262.344 42.4474 259.723 38.4286C260.013 38.2767 260.285 38.0943 260.535 37.8845L260.661 37.7749L260.865 37.5903C261.202 37.2763 261.47 36.8967 261.655 36.4749C261.839 36.0532 261.935 35.5982 261.936 35.138C261.952 34.6237 261.866 34.1113 261.682 33.6307C261.498 33.1501 261.221 32.7109 260.865 32.3387L260.435 31.905C259.86 31.3178 259.224 30.7942 258.537 30.3433C258.41 30.2577 258.276 30.1753 258.14 30.0977C258.386 29.6519 258.54 29.1607 258.591 28.654C258.643 28.1472 258.591 27.6352 258.44 27.1489C258.294 26.6327 258.044 26.1519 257.705 25.7363C257.366 25.3207 256.945 24.9793 256.468 24.7332C255.453 24.2286 254.329 23.9806 253.196 24.0109C251.508 24.0259 249.843 24.4056 248.315 25.124C244.432 21.6515 240.134 18.6733 235.519 16.2572C229.897 13.3528 224.059 10.8884 218.056 8.88639C212.056 6.87371 205.935 5.24083 199.73 3.99746C194.303 2.84165 188.773 2.23145 183.224 2.17593C182.468 2.17593 181.71 2.18973 180.971 2.21536L180.487 2.23429C177.924 2.29672 175.368 2.53674 172.838 2.95264C169.847 3.49476 167.493 4.35782 165.643 5.59149C165.477 5.42137 165.25 5.32386 165.012 5.32023C164.896 5.3201 164.782 5.34611 164.677 5.39632C160.135 7.5648 155.168 9.17736 150.365 10.7379L149.222 11.1093C144.08 12.7938 138.759 13.8756 133.367 14.3332C132.802 14.3834 132.26 14.5787 131.793 14.9002C131.334 15.2074 130.963 15.6285 130.716 16.1224C130.515 16.5206 130.425 16.9657 130.455 17.4107C130.486 17.8558 130.636 18.2844 130.89 18.6512C131.205 19.135 131.509 19.6168 131.789 20.0651L131.341 20.0182H131.339C131 19.9823 130.648 19.9452 130.303 19.9105C130.232 19.9034 130.16 19.8999 130.088 19.8999C129.696 19.9167 129.311 20.0127 128.957 20.1821C128.604 20.3515 128.288 20.5908 128.029 20.8856C127.743 21.1729 127.518 21.5143 127.366 21.8897C127.214 22.2652 127.138 22.6672 127.143 23.0722C127.202 24.0627 127.312 25.0497 127.471 26.0292H127.459H127.357C126.767 26.0237 126.182 26.137 125.637 26.3624C124.293 26.9301 123.473 27.9946 123.129 29.6174C122.841 30.9773 122.934 32.5122 123.054 33.9682C123.397 38.1183 124.989 42.0026 127.423 44.6257C126.445 45.6402 125.597 46.7729 124.9 47.9975C124.186 49.2644 123.626 50.6116 123.23 52.0107C122.588 54.1406 122.327 56.3669 122.457 58.5875L122.51 59.2471C122.725 61.7622 123.157 64.3218 124.843 66.0077C125.184 66.3631 125.594 66.646 126.047 66.8395C126.501 67.033 126.989 67.133 127.482 67.1337C127.604 67.1337 127.728 67.1274 127.851 67.1156C127.22 72.6657 126.809 78.3491 126.443 83.6946L126.266 86.3362C125.775 93.7551 125.446 99.8541 125.231 105.53C124.967 112.486 124.876 118.769 124.955 124.74C124.985 127.705 125.176 130.666 125.527 133.611C125.874 136.512 126.429 139.384 127.186 142.206C127.944 145.014 128.949 147.75 130.191 150.38C131.465 153.066 133.01 155.616 134.799 157.99C136.466 160.195 138.314 162.257 140.325 164.154C142.33 166.045 144.492 167.762 146.787 169.287C149.082 170.81 151.505 172.129 154.031 173.228C156.569 174.329 159.203 175.194 161.9 175.812C165.254 176.571 168.681 176.951 172.119 176.944ZM245.97 116.829H246.035C247.043 116.799 248.008 116.411 248.756 115.735C249.496 115.042 250.157 114.27 250.727 113.432C250.926 113.161 251.132 112.883 251.34 112.615C251.505 112.923 251.729 113.196 251.998 113.419L252.179 113.561C252.733 114.04 253.43 114.322 254.161 114.364C254.198 114.364 254.234 114.364 254.269 114.361C254.836 114.336 255.39 114.186 255.893 113.923C256.514 113.58 256.99 113.024 257.234 112.358C257.513 111.652 257.547 110.873 257.328 110.146C257.109 109.418 256.652 108.787 256.029 108.352L256.266 108.189C256.79 107.854 257.244 107.42 257.602 106.91L257.683 106.779H257.652C257.752 106.612 257.813 106.424 257.83 106.229C257.847 106.035 257.819 105.839 257.748 105.657C257.677 105.475 257.565 105.312 257.421 105.18C257.278 105.047 257.105 104.95 256.918 104.895C256.533 104.774 256.132 104.714 255.729 104.718C254.058 104.718 252.199 105.583 250.705 106.277C250.555 106.347 250.4 106.419 250.251 106.487C247.871 107.579 245.818 109.23 243.954 110.852C243.108 111.591 242.771 112.863 243.055 114.254L243.069 114.325C243.088 114.42 243.109 114.518 243.13 114.617C243.281 115.25 243.655 115.808 244.184 116.187C244.695 116.586 245.322 116.812 245.97 116.829Z" fill="#282A2B"/>
<path fill-rule="evenodd" clip-rule="evenodd" d="M144.123 74.6002C146.368 74.2106 148.82 74.198 151.03 74.8182C152.768 75.3055 155.501 76.4138 156.252 78.1892C156.403 78.5476 156.401 79.1 155.964 79.2861C155.374 79.4812 154.345 79.5837 154.452 79.3637C153.946 79.3096 153.436 79.2108 152.922 79.1115C152.114 78.9553 151.3 78.7979 150.489 78.8114C148.766 78.8401 147.158 79.1418 145.553 79.7856C144.107 80.3652 142.752 81.1924 141.599 82.2415C140.201 83.5126 139.425 85.4217 137.774 86.3746C135.749 87.5432 133.404 86.0352 133.297 83.8056C133.169 81.1355 135.555 78.9425 137.556 77.4353L137.768 77.2765C139.601 75.9198 141.879 74.9897 144.123 74.6002ZM202.105 79.6395C198.529 76.4743 192.032 73.4176 187.21 74.9753C184.438 75.8707 183.23 80.3374 186.324 81.7532C189.908 83.3926 194.04 82.7255 197.687 84.4248C199.219 85.1388 200.659 86.031 201.726 87.3396C202.566 88.371 203.421 89.7281 204.636 90.3226C204.955 90.4792 205.388 90.4831 205.644 90.1929C208.307 87.1799 204.43 81.698 202.105 79.6395ZM134.254 99.3432C132.786 93.4599 139.31 87.6815 144.884 88.1408C147.708 88.3738 150.225 89.9998 151.771 92.3457C152.85 93.9851 153.873 97.2544 152.17 98.8247C151.929 99.0463 151.603 99.0329 151.359 98.8247C150.37 97.9774 149.798 96.5766 148.843 95.6193C147.785 94.5591 146.393 93.8049 144.884 93.7032C143.515 93.6109 142.241 94.2118 141.344 95.2463C140.258 96.4993 140.299 97.8343 139.889 99.3432C139.145 102.085 134.957 102.166 134.254 99.3432ZM191.491 90.0739C188.581 89.5578 185.6 90.2813 183.192 91.9838L183.01 92.115C180.69 93.8115 178.095 96.7904 179.426 99.7146C179.96 100.889 181.56 101.073 182.575 100.541C184.266 99.6543 184.572 97.4736 186.08 96.2667C187.317 95.2775 188.982 94.6774 190.575 94.8221C194.317 95.162 196.619 98.8527 197.781 102.033C197.93 102.44 198.527 102.598 198.761 102.161C201.501 97.0391 196.65 90.9894 191.491 90.0739ZM155.388 117.318C152.185 112.831 156.721 108.611 159.698 106.802C160.478 106.242 159.859 104.387 158.193 104.674C143.054 107.275 150.898 133.352 170.226 119.042C172.528 117.186 169.741 113.097 167.261 114.686C167.135 114.783 167.003 114.885 166.866 114.991C164.079 117.146 158.981 121.088 155.388 117.318ZM177.308 127.274C175.103 123.646 170.402 132.533 169.902 134.061C169.46 135.415 169.168 136.802 169.019 138.205C167.309 138.588 165.534 138.589 163.782 138.253C161.177 137.753 159.586 136.354 157.323 135.152C155.759 134.321 153.789 135.295 152.976 136.672C152.02 138.294 152.629 139.977 153.887 141.186C156.272 143.478 160.964 144.005 164.078 143.396C165.861 143.047 167.496 142.378 168.94 141.406C168.949 141.588 168.955 141.769 168.97 141.95L168.997 142.264C169.237 144.806 169.935 148.003 171.91 149.658C175.149 152.371 179.145 147.152 175.999 144.442L175.901 144.361C173.945 142.78 173.518 138.54 173.624 136.204C173.693 134.68 173.97 133.136 174.452 131.684L174.551 131.395C174.695 130.985 176.275 127.094 176.846 127.59L176.873 127.618C177.109 127.899 177.489 127.571 177.308 127.274Z" fill="#282A2B"/>
<path fill-rule="evenodd" clip-rule="evenodd" d="M145.899 79.8896C142.693 79.1732 115.266 75.8262 114.495 84.5672C113.879 85.9704 114.05 93.4781 116.709 91.2536C123.442 96.331 121.5 106.071 126.398 112.525C132.895 121.824 154.481 120.741 157.238 93.9165C159.974 92.8238 162.385 93.2559 164.849 93.6974C165.959 93.8963 167.08 94.0972 168.246 94.1613C164.454 122.637 210.684 134.619 214.309 99.9031C214.836 95.4072 216.196 95.8054 220.201 94.517C220.922 94.3656 221.746 94.2216 222.537 93.9942C223.851 94.4318 224.558 93.8065 225.598 92.8881C228.65 90.1908 234.564 84.9652 267.113 96.7146C267.148 98.5298 268.417 99.4264 269.687 98.5452C278.057 87.1055 237.138 84.0156 228.175 84.3393C226.429 83.8378 224.782 83.5527 223.427 84.0842C216.27 78.3275 182.131 75.0866 171.993 86.3875C165.238 88.5127 159.544 85.8328 153.786 83.1228C151.204 81.9076 148.608 80.6864 145.899 79.8896ZM125.603 83.5748C125.607 83.5799 125.612 83.5843 125.616 83.5894C125.646 83.5709 125.676 83.5519 125.707 83.5338C125.673 83.548 125.637 83.5602 125.603 83.5748ZM132.032 113.515C137.949 116.365 146.205 112.162 150.183 107.759C151.631 106.156 152.749 101.569 152.192 98.6603C150.683 90.7824 145.013 86.0544 139.028 84.4398C130.731 82.2012 122.381 87.8723 123.354 94.5647C124.277 100.907 125.676 110.108 132.032 113.515ZM187.916 116.708C179.676 114.482 172.781 106.968 172.307 98.3824C172.125 94.7409 173.191 91.144 175.797 88.6518C184.7 85.8273 202.526 84.0736 209.853 94.362C211.716 96.9776 211.022 100.027 210.726 101.026C207.754 111.08 201.193 120.413 187.916 116.708Z" fill="#282A2B"/>
</svg>
