<svg xmlns="http://www.w3.org/2000/svg" width="304" height="445" fill="none" viewBox="0 0 304 445"><path fill="#fff" d="M166.069 164.842L170.893 176.767L168.235 214.566L166.256 214.875C145.37 218.112 131.177 219.748 123.678 219.781H123.446C115.894 219.781 106.845 218.094 96.2992 214.72L95.8186 214.566L94.6015 186.263H97.4726L102.667 174.087L102.662 174.083C102.605 174.18 102.546 174.275 102.484 174.367C100.318 177.569 99.0634 174.983 93.9766 176.116C87.8859 177.472 85.182 183.628 79.82 188.228C77.3302 190.364 72.1049 191.371 69.6041 192.841L66.9774 194.384C58.7471 199.239 49.287 205.136 44.32 212.818C38.4975 221.824 34.4838 230.371 30.7776 240.389C22.7886 261.981 17.2436 284.016 13.28 306.677C9.26556 329.646 6.85342 352.897 5.00903 376.131C4.1553 386.898 3.42905 397.673 2.83029 408.458L2.68243 411.154C2.36703 417.021 2.64105 422.762 7.97592 426.375C11.7983 428.964 16.871 429.358 21.3554 429.624L21.5995 429.638C54.7549 431.583 87.9108 433.519 121.067 435.447L170.801 438.355C179.076 438.84 187.351 439.321 195.626 439.799L215.826 440.966C225.346 441.507 234.878 441.976 244.41 441.921C256.392 441.835 268.357 440.982 280.23 439.367L281.278 439.224C288.756 438.192 299.595 435.58 300.939 426.614C300.984 426.355 300.967 426.089 300.889 425.837C300.81 425.586 300.672 425.357 300.487 425.171C300.301 424.984 300.073 424.844 299.823 424.764C299.572 424.683 299.306 424.664 299.046 424.708C299.359 423.249 299.553 421.787 299.739 420.517C300.528 415.093 301.044 409.632 301.284 404.155C301.741 393.184 301.4 382.195 300.266 371.273C298.452 353.22 295.912 335.198 293.287 317.24L292.703 313.251C289.91 294.224 286.585 275.229 281.383 256.696C276.577 239.575 269.079 221.763 258.762 210.938C248.445 200.113 233.735 190.706 218.621 184.945C217.312 184.446 191.306 178.752 189.554 179.583L189.239 179.336C184.054 175.243 176.658 168.053 169.042 170.317L169.025 170.289C168.845 169.958 168.142 167.749 167.172 164.844L166.069 164.842Z"/><path fill="#fff" d="M160.569 148.97C154.271 140.985 147.631 138.446 137.82 139.041C131.109 138.753 124.481 140.611 118.897 144.345C113.735 147.042 109.159 150.755 105.891 155.534C103.096 159.621 105.22 169.718 102.667 174.087C102.692 174.562 102.705 174.996 102.706 175.388C102.706 179.168 100.075 183.387 94.8132 188.044L94.6042 188.228V215.701C103.451 218.421 114.404 219.781 127.463 219.781C140.328 219.781 153.708 217.621 167.605 213.301L168.236 213.104L170.893 183.245L168.235 174.983V168.062L167.21 164.967C165.39 159.525 162.607 151.553 160.569 148.97Z"/><path fill="#fff" d="M168.235 213.103C168.235 213.103 144.877 219.905 128.93 219.905C112.984 219.905 95.8198 213.103 95.8198 213.103L98.6045 437.013L143.423 437.56L168.235 213.103Z"/><path fill="#282A2B" d="M243.288 444.174C243.969 444.179 244.633 443.964 245.182 443.561C245.731 443.158 246.135 442.588 246.334 441.937L246.361 441.847L246.437 441.906C246.999 440.036 246.816 437.915 246.638 435.864C246.581 435.209 246.528 434.59 246.498 433.979L245.354 410.831C245.054 404.737 244.763 398.553 244.478 392.574C244 382.469 243.506 372.021 242.961 361.747L242.666 356.294C242.286 349.402 241.97 342.205 241.701 334.294L241.62 331.847C241.509 328.399 241.473 324.711 241.952 321.09C242.378 317.518 243.455 314.055 245.127 310.87C245.155 310.823 245.17 310.77 245.17 310.716C245.17 310.662 245.155 310.608 245.127 310.562C245.098 310.514 245.058 310.475 245.01 310.447C244.961 310.42 244.907 310.405 244.851 310.404C244.772 310.405 244.695 310.435 244.636 310.488C243.126 311.826 241.784 313.342 240.641 315.004C239.482 316.688 238.493 318.483 237.69 320.362C236.095 324.114 235.111 328.097 234.775 332.16C234.256 338.316 234.667 344.698 235.064 350.872C235.204 353.045 235.349 355.288 235.448 357.472C235.55 359.697 235.65 361.956 235.748 364.141V364.149C236.056 371.092 236.376 378.271 236.769 385.328C236.944 388.476 237.127 391.676 237.304 394.768V394.778V394.796C237.656 400.951 238.02 407.316 238.342 413.577L239.433 434.764C239.462 435.325 239.468 435.908 239.472 436.523V436.526C239.492 438.393 239.512 440.323 240.163 441.906C240.748 443.327 241.917 444.174 243.288 444.174ZM85.3902 437.56C85.8986 437.552 86.3989 437.431 86.8549 437.206C87.3315 436.979 87.7585 436.66 88.1114 436.267C88.3893 435.976 88.602 435.629 88.7351 435.249C88.8682 434.87 88.9188 434.466 88.8834 434.065C87.3371 420.756 85.1201 407.305 82.9764 394.297L82.8656 393.627C81.0126 382.381 78.8481 370.747 76.4347 359.049C74.1429 347.94 71.5478 336.395 68.722 324.735L67.7569 320.765C66.3592 314.976 65.2891 310.101 64.6102 305.124C63.8102 299.26 63.6963 294.065 64.2629 289.24C64.7617 284.792 65.9738 280.454 67.8527 276.391C68.8024 274.368 69.9677 272.454 71.3285 270.681C72.6839 268.918 74.2687 267.343 76.0409 266L76.2585 265.839C76.7098 265.52 77.0875 265.108 77.3664 264.632C77.6452 264.155 77.8186 263.624 77.875 263.074C77.9074 262.627 77.8392 262.178 77.6754 261.76C77.5117 261.343 77.2566 260.967 76.9288 260.661C75.938 259.689 74.8809 258.655 73.7868 257.586L67.4923 251.443L66.2236 250.202C65.2107 249.213 64.1201 248.159 63.0091 247.149C62.8565 247.01 62.6476 246.846 62.4055 246.655L62.4027 246.653C61.6082 246.027 60.5209 245.171 60.4199 244.41C60.3517 243.898 60.8268 243.064 61.1738 242.458C61.2621 242.303 61.3457 242.157 61.4103 242.035L62.8297 239.169C63.4822 237.847 64.1288 236.494 64.7541 235.187L65.2044 234.246C65.6653 233.284 66.1356 232.308 66.5902 231.363L66.5934 231.357C67.7478 228.96 68.9413 226.481 70.087 224.023L79.6752 203.478C80.2994 202.141 80.9184 200.762 81.5173 199.429V199.426C83.528 194.951 85.6054 190.325 88.3255 186.203L89.0225 185.158C89.6325 184.293 90.1248 183.351 90.4865 182.356C90.8156 181.272 91.3047 180.242 91.9378 179.302C92.7655 178.248 93.8331 177.406 95.0517 176.847C96.2551 176.264 97.5337 175.851 98.8509 175.62C98.9127 175.614 98.9697 175.584 99.0095 175.537C99.0494 175.489 99.0688 175.428 99.0638 175.366C99.0606 175.286 99.0297 175.21 98.9765 175.15C98.9233 175.091 98.851 175.051 98.772 175.039C98.3849 175.003 97.9953 174.984 97.6141 174.984C95.0371 174.984 92.9266 175.803 90.4825 176.752C90.2625 176.838 90.04 176.924 89.815 177.011C88.4576 177.532 87.1608 178.143 85.9492 178.725C84.3394 179.497 83.3234 180.846 82.3401 182.278L81.8137 183.049C78.6663 187.662 76.2825 192.878 73.9772 197.922L73.9749 197.927C73.2849 199.437 72.5713 200.999 71.8514 202.512C70.9761 204.351 70.0838 206.221 69.2212 208.029L69.218 208.035C66.4976 213.738 63.6829 219.634 60.9802 225.465L59.2233 229.25C58.3953 231.037 57.5031 232.963 56.6069 234.935L55.1162 238.241C54.425 239.788 53.6653 241.59 53.4019 243.379C53.0875 245.184 53.4465 247.041 54.4109 248.598C55.9323 251.064 58.335 253.085 60.6584 255.04C61.3733 255.641 62.0486 256.209 62.6988 256.789C65.0104 258.853 67.3567 260.947 69.6722 263.012C67.2961 265.408 65.2588 268.117 63.6167 271.065C61.9768 274.014 60.6774 277.14 59.7437 280.382C57.7405 279.548 55.432 279.218 53.1989 278.899C52.4222 278.788 51.6896 278.684 50.9736 278.559C50.7733 278.523 50.5703 278.505 50.3669 278.505C50.0101 278.495 49.6554 278.562 49.3272 278.703C48.9991 278.843 48.7053 279.053 48.4661 279.318C48.0332 279.816 47.7865 280.449 47.7678 281.108C47.7462 281.455 47.7944 281.803 47.9096 282.132C48.0247 282.46 48.2044 282.762 48.4381 283.02C48.6701 283.25 48.9472 283.431 49.252 283.55C49.5568 283.669 49.8829 283.724 50.2099 283.712H50.2762C50.5246 283.707 50.7887 283.705 51.0844 283.705C51.5883 283.705 52.0934 283.712 52.628 283.719H52.652C53.1752 283.726 53.7166 283.734 54.2685 283.734C55.8449 283.767 57.4207 283.643 58.9725 283.364C58.49 285.5 58.1363 287.663 57.9131 289.841C57.3837 294.991 57.5761 300.576 58.5018 306.917C59.3408 312.662 60.6762 318.366 61.9714 323.715L62.191 324.622C65.4295 337.943 68.0821 349.694 70.3007 360.544C72.7546 372.543 74.9925 384.759 76.9524 396.851C78.6525 407.342 79.9528 418.06 81.2105 428.425L81.2211 428.513C81.4423 430.336 81.671 432.219 81.8981 434.072C81.9893 434.978 82.3571 435.834 82.9516 436.524C83.2611 436.86 83.6386 437.127 84.059 437.305C84.4794 437.484 84.9331 437.571 85.3898 437.56H85.3902ZM167.841 437.013C168.398 437.019 168.944 436.862 169.412 436.559C169.925 436.214 170.304 435.702 170.485 435.11C173.919 424.724 177.191 414.095 180.355 403.819C181.467 400.204 182.617 396.468 183.762 392.783C190.622 370.697 196.775 346.413 203.128 316.357C205.809 303.674 208.292 290.772 210.512 278.01C210.936 275.572 211.354 273.121 211.754 270.722L212.345 267.146C212.75 264.598 212.98 261.942 211 259.925C210.195 259.151 209.252 258.534 208.22 258.107C207.15 257.653 206.056 257.256 204.943 256.92C204.33 256.723 203.752 256.536 203.199 256.336L203.014 256.268C202.089 255.922 201.155 255.582 200.251 255.253C199.595 255.014 198.851 254.744 198.138 254.481C199.366 253.514 200.607 252.52 201.805 251.559L201.817 251.549L201.821 251.546C202.954 250.64 204.125 249.699 205.283 248.786C205.917 248.287 206.564 247.783 207.189 247.295C208.468 246.298 209.791 245.268 211.065 244.224C211.853 243.599 212.538 242.856 213.096 242.02C213.65 241.18 213.986 240.215 214.072 239.212C214.218 237.355 213.537 235.601 212.88 233.905C212.789 233.671 212.686 233.406 212.59 233.15L212.519 232.961C211.862 231.189 211.099 229.13 210.327 227.116L205.726 215.083C204.806 212.675 203.886 210.233 202.997 207.868L202.994 207.861C201.048 202.69 199.035 197.343 196.926 192.14C195.735 189.128 194.363 186.191 192.817 183.345C192.015 181.891 191.214 180.583 190.373 179.345C189.953 178.706 189.447 178.127 188.87 177.625C188.284 177.142 187.643 176.728 186.962 176.392C185.743 175.704 184.589 174.905 183.516 174.005C182.463 173.125 181.335 172.339 180.146 171.654C177.81 170.364 175.192 169.672 172.524 169.641C172.48 169.64 172.437 169.655 172.405 169.683C172.372 169.712 172.351 169.752 172.346 169.796C172.338 169.84 172.347 169.886 172.371 169.924C172.394 169.963 172.431 169.991 172.474 170.004C173.957 170.446 175.393 171.033 176.76 171.757C178.128 172.481 179.403 173.367 180.558 174.397C181.722 175.362 182.703 176.53 183.451 177.845C183.698 178.353 183.87 178.895 183.961 179.453L183.995 179.64C184.123 180.494 184.444 181.308 184.934 182.019L185.022 182.156C186.471 184.424 187.75 186.796 188.847 189.253C190.054 191.91 191.103 194.644 191.883 196.73L195.968 207.695L200.046 218.662C200.923 221.018 201.8 223.374 202.678 225.729L203.994 229.263C204.699 231.155 205.437 233.074 206.15 234.929L206.159 234.952L206.215 235.099C206.318 235.365 206.423 235.632 206.525 235.892C206.749 236.459 206.98 237.044 207.182 237.626C207.196 237.666 207.218 237.766 207.248 237.895C207.293 238.14 207.36 238.381 207.449 238.614L207.416 238.673C206.84 239.642 205.579 240.508 204.467 241.272C203.983 241.605 203.525 241.92 203.151 242.222L198.863 245.688C197.97 246.41 197.055 247.138 196.171 247.843L196.152 247.858C194.012 249.56 191.799 251.322 189.706 253.144C189.32 253.472 189.036 253.902 188.886 254.386C188.753 254.837 188.735 255.315 188.832 255.776C188.954 256.358 189.223 256.9 189.612 257.349C190.001 257.809 190.508 258.154 191.079 258.346C193.705 259.201 196.333 260.199 198.874 261.165C199.659 261.463 200.547 261.801 201.397 262.119C201.916 262.313 202.451 262.501 202.967 262.682C203.837 262.987 204.736 263.302 205.593 263.66L206.426 264.02C206.65 264.121 206.646 264.152 206.618 264.357C206.597 264.492 206.585 264.629 206.582 264.765C206.558 265.217 206.496 265.665 206.394 266.106V266.109C206.357 266.294 206.32 266.486 206.289 266.67C205.143 273.597 203.908 280.632 202.618 287.582C200.37 299.691 197.843 312.063 195.11 324.356C192.44 336.367 189.496 348.647 186.36 360.855C184.507 368.067 182.542 375.379 180.643 382.451V382.455V382.461C179.319 387.387 177.95 392.481 176.631 397.499C173.85 408.07 170.26 418.65 166.789 428.883L166.761 428.965C166.24 430.499 165.702 432.086 165.177 433.643C165.036 434.006 164.987 434.398 165.032 434.785C165.077 435.171 165.217 435.541 165.437 435.862C165.721 436.227 166.086 436.522 166.503 436.722C166.92 436.921 167.379 437.021 167.841 437.013ZM98.9156 432.523C99.5473 432.531 100.164 432.33 100.67 431.952C101.222 431.523 101.641 430.948 101.882 430.292C102.06 429.777 102.092 429.223 101.974 428.691C101.985 428.351 102.014 427.982 102.041 427.627V427.624C102.081 427.13 102.12 426.618 102.11 426.18L102.044 423.03C102.038 422.734 102.028 422.433 102.018 422.141V422.137C102.013 421.962 102.006 421.763 102.001 421.574L102.058 421.58C105.141 421.729 108.445 421.796 112.769 421.796C114.572 421.796 116.405 421.785 118.176 421.774H118.205C119.891 421.764 121.635 421.753 123.356 421.752L126.51 421.757H126.969C129.193 421.757 131.816 421.743 134.406 421.644L135.391 421.602C135.994 421.574 136.619 421.551 137.225 421.529H137.25C138.63 421.479 140.06 421.427 141.466 421.306C141.183 423.587 140.948 425.643 140.747 427.59C140.714 428.018 140.771 428.449 140.916 428.853C141.061 429.258 141.29 429.627 141.588 429.936C141.946 430.339 142.382 430.664 142.87 430.893C143.358 431.122 143.887 431.25 144.425 431.268C144.905 431.276 145.38 431.182 145.82 430.992C146.26 430.802 146.655 430.52 146.977 430.165C147.602 429.438 147.993 428.54 148.098 427.587C148.737 422.762 149.186 417.832 149.621 413.065C150.023 408.656 150.439 404.098 151.003 399.633C151.949 392.146 152.795 384.52 153.613 377.145L153.663 376.696C153.74 376.006 153.816 375.316 153.893 374.626L154.203 371.847C157.835 339.333 161.052 309.538 164.035 280.761L165.501 266.562L165.654 265.08C167.06 251.493 168.514 237.442 169.727 223.603C170.408 215.842 171.063 207.798 171.73 199.01C172.152 193.446 172.457 187.547 172.661 180.977C173.047 180.591 173.323 180.108 173.46 179.579C173.597 179.05 173.59 178.494 173.441 177.969C173.273 177.384 173.068 176.75 172.794 175.976L172.804 175.542C172.815 175.072 172.827 174.539 172.837 174.022C172.84 173.917 172.822 173.813 172.784 173.715C172.745 173.617 172.688 173.529 172.614 173.454C172.426 173.271 172.174 173.17 171.912 173.172C171.848 173.172 171.784 173.178 171.721 173.191C171.377 172.357 171.014 171.513 170.662 170.697L170.659 170.688C170.084 169.352 169.49 167.972 168.97 166.615C168.626 165.717 168.291 164.786 167.969 163.886C167.007 161.209 166.014 158.442 164.585 156.001C164.57 155.974 164.548 155.951 164.521 155.935C164.494 155.92 164.464 155.911 164.433 155.911C164.383 155.91 164.335 155.929 164.3 155.963C164.264 155.997 164.243 156.044 164.242 156.094C164.194 158.924 164.688 161.828 165.165 164.637V164.639C165.327 165.591 165.495 166.576 165.636 167.534C165.848 168.966 166.008 170.456 166.163 171.896V171.899C166.378 174.287 166.717 176.663 167.18 179.015C167.198 179.189 167.23 179.36 167.278 179.528L167.318 179.656C167.492 180.186 167.794 180.664 168.198 181.05C168.601 181.435 169.094 181.714 169.631 181.864C169.23 184.084 168.933 185.895 168.696 187.562C168.254 190.675 167.854 193.75 167.389 197.409L166.889 201.352C166.478 204.585 166.038 208.127 165.504 212.5C164.35 212.978 163.169 213.387 161.966 213.726C159.183 214.522 156.363 214.842 153.477 215.125C148.607 215.603 143.629 215.871 138.814 216.13H138.789C137.842 216.18 136.862 216.233 135.9 216.287L134.645 216.358C131.337 216.547 128.357 216.639 125.537 216.639C121.975 216.652 118.414 216.481 114.87 216.127C111.611 215.792 108.381 215.226 105.204 214.431C104.411 214.234 103.617 213.982 102.849 213.739C102.052 213.487 101.23 213.226 100.41 213.026C99.8974 212.868 99.4117 212.635 98.9688 212.333L98.8627 212.269C98.6118 211.949 98.2548 211.731 97.8565 211.653L97.7383 211.633L97.62 211.616L97.5806 211.597L97.5837 211.61C97.4208 211.588 97.2565 211.577 97.0921 211.577C96.9428 211.576 96.7937 211.586 96.6457 211.606C96.548 209.203 96.4135 206.044 96.2412 202.913C96.1509 201.275 96.0248 199.59 95.903 197.96V197.956C95.4405 191.778 94.9626 185.39 96.2089 179.302C96.2166 179.271 96.2173 179.24 96.2108 179.209C96.2043 179.179 96.1908 179.15 96.1714 179.125C96.1478 179.097 96.117 179.076 96.0823 179.063C96.0475 179.051 96.0101 179.048 95.9739 179.055C95.9377 179.062 95.9041 179.079 95.8764 179.103C95.8487 179.127 95.8281 179.159 95.8166 179.194C93.1143 186.313 93.0323 194.067 92.953 201.565C92.9416 202.655 92.9294 203.781 92.9096 204.883C92.7831 211.845 92.8257 218.927 92.8667 225.776C92.8749 227.188 92.884 228.649 92.8911 230.104C92.2928 230.343 91.7575 230.717 91.3267 231.196C90.8212 231.784 90.5616 232.545 90.6016 233.32C90.6163 233.603 90.6882 233.88 90.8128 234.135C90.9374 234.39 91.1122 234.617 91.3267 234.802C91.7952 235.202 92.3351 235.51 92.9179 235.709C92.9479 242.989 93.0003 250.361 93.0733 257.619C92.7125 257.921 92.427 258.303 92.2391 258.734C92.0513 259.166 91.9664 259.635 91.991 260.105C91.9913 260.535 92.0945 260.958 92.2919 261.339C92.4893 261.721 92.7752 262.049 93.1257 262.298C93.3079 278.783 93.5764 295.544 93.8354 311.753V311.77C93.9482 318.802 94.0645 326.074 94.1729 333.249L94.92 382.864C94.9594 385.396 95.0064 387.963 95.0533 390.445C95.129 394.459 95.207 398.61 95.2433 402.694L95.1964 402.713L95.0312 402.789C94.7375 402.927 94.3373 403.136 94.2529 403.347C94.235 403.387 94.2262 403.429 94.2273 403.472C93.7373 403.548 93.2833 403.775 92.9294 404.122C92.7095 404.326 92.5373 404.576 92.425 404.854C92.3127 405.132 92.2631 405.432 92.2796 405.731C92.3157 406.328 92.5436 406.896 92.9294 407.353L93.1348 407.602C93.3562 407.839 93.6255 408.025 93.9247 408.149C94.2238 408.272 94.546 408.331 94.8696 408.32C95.0016 408.32 95.1334 408.31 95.2638 408.29C95.2615 409.627 95.2571 410.987 95.2524 412.302V412.316C95.2433 415.05 95.2339 417.878 95.2429 420.666C95.2473 421.971 95.2674 423.254 95.2879 424.447L95.3395 427.468C95.3264 428.379 95.4365 429.287 95.6668 430.169C95.7697 430.602 95.9695 431.005 96.2512 431.35C96.5328 431.694 96.8889 431.97 97.2927 432.157C97.8024 432.391 98.3551 432.515 98.9156 432.523ZM143.424 406.774L142.754 411.617C142.381 414.317 142.071 416.585 141.773 418.887C140.251 418.678 138.698 418.556 137.197 418.437H137.194C136.603 418.39 135.988 418.342 135.39 418.289C131.692 417.961 127.893 417.804 124.541 417.666H124.537C122.418 417.579 120.268 417.472 118.189 417.368C113.145 417.118 107.929 416.858 102.806 416.858C102.549 416.858 102.298 416.858 102.057 416.858C101.976 416.858 101.899 416.864 101.835 416.87L101.464 407.313L106.722 407.306C111.184 407.299 115.711 407.26 120.088 407.223C121.2 407.213 122.357 407.206 123.378 407.199H123.4C126.261 407.18 129.22 407.16 132.129 407.099L133.849 407.06C134.812 407.034 135.786 407.033 136.817 407.032H136.822C139.025 407.073 141.228 406.987 143.421 406.775L143.424 406.774ZM145.14 393.122C144.724 396.782 144.36 399.776 143.995 402.545C142.184 402.328 140.36 402.23 138.536 402.251C137.787 402.251 137.057 402.26 136.35 402.268H136.344C135.642 402.277 134.917 402.286 134.201 402.286C133.949 402.286 133.72 402.286 133.502 402.282L133.066 402.277C131.439 402.249 129.706 402.238 127.612 402.238C126.117 402.238 124.596 402.244 123.126 402.251H123.115C121.871 402.256 120.584 402.262 119.305 402.263C113.877 402.269 109.38 402.288 105.151 402.322L101.275 402.354L101.267 402.159C101.168 399.456 101.09 396.515 101.023 392.903C101.284 392.934 101.489 392.951 101.688 392.959C102.198 392.98 102.701 392.983 103.082 392.983C103.305 392.983 103.527 392.983 103.735 392.981H103.836C104.016 392.981 104.195 392.981 104.375 392.981C104.543 392.981 104.69 392.981 104.822 392.981C106.758 392.998 109.045 393.015 111.332 393.015H111.569C115.938 393.015 120.389 393.042 124.8 393.094C125.931 393.108 127.082 393.123 128.195 393.138H128.263H128.294C131.64 393.183 135.101 393.23 138.505 393.236H138.733C140.962 393.238 143.278 393.173 145.139 393.121L145.14 393.122ZM146.845 377.855C146.514 380.712 146.194 383.621 145.884 386.435L145.882 386.455L145.876 386.508C145.784 387.34 145.692 388.172 145.6 389.005C145.319 388.961 145.039 388.926 144.768 388.897C142.302 388.639 140.125 388.453 138.113 388.328C133.556 388.045 129.02 387.902 124.798 387.789C120.247 387.667 115.635 387.572 111.089 387.508C109.942 387.492 108.738 387.484 107.409 387.484C106.51 387.484 105.535 387.488 104.43 387.495H104.095H103.594H103.555C103.38 387.495 103.206 387.495 103.031 387.495C102.512 387.495 101.9 387.501 101.297 387.541C101.178 387.549 101.068 387.561 100.937 387.576L100.858 381.994C100.845 381.084 100.83 380.145 100.815 379.204C102.905 379.332 104.966 379.349 106.707 379.349C107.442 379.349 108.186 379.346 108.907 379.342H108.919H109.116C109.758 379.339 110.423 379.336 111.081 379.336H111.167H111.955C112.507 379.339 113.075 379.34 113.647 379.34C116.951 379.34 120.521 379.298 124.884 379.207C130.109 379.098 134.341 378.931 138.2 378.685C140.014 378.569 141.823 378.412 143.57 378.219L144.464 378.117C144.836 378.073 145.221 378.033 145.593 377.994C146.001 377.949 146.425 377.905 146.844 377.854L146.845 377.855ZM148.526 363.288C148.402 364.371 148.277 365.454 148.152 366.536C147.86 369.07 147.529 371.943 147.209 374.703C146.612 374.675 146.01 374.663 145.427 374.651H145.414C144.972 374.641 144.516 374.632 144.073 374.616C141.863 374.537 139.666 374.522 137.809 374.518C137.285 374.518 136.761 374.518 136.208 374.518C134.535 374.518 132.789 374.524 131.249 374.528C129.364 374.535 127.794 374.539 126.178 374.539H124.884C120.318 374.529 115.801 374.451 111.565 374.371C110.052 374.343 108.512 374.278 107.022 374.214C105.019 374.129 102.947 374.041 100.915 374.041H100.717L100.46 362.104C108.001 362.702 115.873 363.023 125.233 363.115L126.477 363.126C128.904 363.145 131.376 363.191 133.767 363.235C136.881 363.294 140.102 363.354 143.276 363.354C145.172 363.352 146.888 363.331 148.525 363.288L148.526 363.288ZM150.433 346.676C149.876 351.557 149.292 356.646 148.698 361.799C145.205 361.37 141.643 361.013 138.199 360.668C134.436 360.291 130.545 359.901 126.735 359.417L120.137 358.574C113.81 357.767 107.07 356.918 100.335 356.211L100.113 345.868C101.085 346.127 102.088 346.255 103.095 346.249H103.138L103.441 346.262L106.64 346.42C107.867 346.48 109.483 346.557 111.09 346.615C116.046 346.796 121.037 346.967 125.925 347.122C129.739 347.243 132.818 347.3 135.614 347.3C137.578 347.3 139.389 347.272 141.153 347.217C143.801 347.133 146.228 346.997 148.573 346.801C148.963 346.769 149.361 346.743 149.746 346.718H149.772C149.987 346.706 150.21 346.691 150.432 346.676L150.433 346.676ZM152.331 329.998C151.894 333.864 151.435 337.887 151.03 341.436L150.702 344.314C150.323 344.254 149.938 344.2 149.566 344.147H149.562H149.551C149.1 344.083 148.633 344.017 148.189 343.942C146.327 343.627 144.34 343.347 141.933 343.059C137.955 342.582 133.614 342.18 128.267 341.793C125.67 341.604 123.029 341.429 120.474 341.26L120.442 341.258L120.391 341.255C118.366 341.121 116.271 340.982 114.213 340.838L110.896 340.604C109.597 340.514 108.543 340.446 107.578 340.385C106.981 340.348 106.368 340.337 105.717 340.324C104.343 340.344 102.97 340.231 101.617 339.989C101.291 339.853 100.941 339.784 100.587 339.785C100.384 339.785 100.181 339.807 99.9821 339.85L99.7593 329.458C100.87 329.69 102.001 329.812 103.135 329.824C103.478 329.839 103.801 329.853 104.116 329.873L104.366 329.89C106.588 330.059 108.958 330.166 112.049 330.245C116.552 330.356 121.482 330.427 127.122 330.462L130.144 330.481C131.507 330.488 133.122 330.497 134.77 330.497C137.626 330.497 139.996 330.473 142.227 330.42C144.716 330.363 147.207 330.243 149.972 330.105C150.349 330.086 150.738 330.07 151.116 330.054H151.149C151.534 330.032 151.934 330.016 152.33 329.996L152.331 329.998ZM154.14 313.737C153.607 318.589 153.12 322.968 152.653 327.125C152.166 327.072 151.679 327.025 151.207 326.981C150.822 326.944 150.385 326.902 149.972 326.859C147.11 326.556 144.722 326.309 142.226 326.112C137.635 325.75 132.961 325.521 128.442 325.297H128.436L127.509 325.251C124.751 325.114 121.956 325.001 119.253 324.892H119.233C117.004 324.802 114.699 324.709 112.433 324.603C109.485 324.466 107.234 324.317 105.132 324.124C104.572 324.072 103.988 323.976 103.368 323.875H103.363C102.404 323.691 101.432 323.584 100.457 323.555C100.181 323.554 99.9052 323.57 99.6311 323.602C99.5574 320.214 99.4782 316.695 99.4084 313.59L99.3895 312.749C99.3708 311.915 99.352 311.08 99.3331 310.246C99.5923 310.55 99.9096 310.8 100.266 310.981C100.623 311.162 101.012 311.27 101.411 311.299C104.696 311.725 108.09 311.893 111.372 312.056C112.595 312.116 113.856 312.179 115.096 312.253L115.897 312.303C120.17 312.585 124.513 312.816 128.711 313.037L129.99 313.105C134.678 313.354 139.552 313.567 144.476 313.739C145.778 313.784 147.122 313.806 148.59 313.806C149.246 313.806 149.937 313.801 150.644 313.792L151.524 313.779C151.815 313.774 152.117 313.771 152.426 313.768C152.988 313.761 153.565 313.756 154.14 313.737ZM155.985 296.784C155.447 301.762 154.908 306.723 154.381 311.529C153.64 311.389 152.896 311.275 152.177 311.164C151.95 311.129 151.726 311.094 151.504 311.06L151.385 311.041C149.125 310.686 146.79 310.318 144.48 310.053C139.48 309.477 134.87 308.985 130.385 308.55L129.155 308.432L128.785 308.396H128.768C125.343 308.063 121.801 307.719 118.315 307.41L115.899 307.201C114.398 307.075 112.865 306.921 111.382 306.771H111.376C108.106 306.442 104.724 306.101 101.413 306.033H101.369C100.957 306.04 100.553 306.143 100.188 306.334C99.8226 306.525 99.5069 306.798 99.2657 307.132C99.1584 302.394 99.0496 297.761 98.938 293.037C99.017 293.161 99.1096 293.275 99.214 293.379C100.924 295.067 102.996 295.192 105.191 295.323C105.546 295.345 105.911 295.366 106.279 295.395L106.44 295.408C109.301 295.649 111.833 295.848 114.18 296.017C119.65 296.411 125.085 296.676 129.68 296.885C134.714 297.111 138.563 297.212 142.159 297.212C143.33 297.212 144.483 297.2 145.586 297.178C146.254 297.164 146.941 297.153 147.605 297.143C150.36 297.095 153.206 297.05 155.985 296.784ZM157.825 279.751L156.327 293.624C153.803 293.26 151.201 293.061 148.681 292.868H148.679C147.772 292.799 146.837 292.727 145.927 292.65L145.198 292.585C141.167 292.218 137.057 291.946 133.081 291.683L132.978 291.676C132.024 291.613 131.037 291.548 130.067 291.482C124.744 291.122 119.492 290.687 114.567 290.272L114.439 290.262C111.945 290.052 109.367 289.835 106.825 289.602L106.507 289.57C106.179 289.536 105.851 289.496 105.533 289.458C104.715 289.341 103.89 289.274 103.063 289.256C101.845 289.214 100.643 289.547 99.6213 290.211C99.3149 290.415 99.0634 290.692 98.8891 291.016C98.8663 290.058 98.8435 289.1 98.8209 288.142L98.8182 288.024C98.7492 285.104 98.6778 282.085 98.6037 279.099C99.279 279.17 99.9579 279.201 100.637 279.192H101.064H101.067H101.462C101.692 279.192 101.994 279.192 102.286 279.203C105.404 279.304 108.512 279.398 110.872 279.467L128.047 279.974C132.148 280.095 136.997 280.219 141.868 280.219C143.151 280.219 144.411 280.21 145.614 280.193C146.123 280.186 146.658 280.18 147.087 280.175H147.094C149.145 280.151 151.264 280.126 153.344 280.013L154.2 279.961C154.595 279.935 155.015 279.917 155.462 279.898C156.23 279.866 157.026 279.833 157.825 279.751ZM159.657 262.945C159.137 267.668 158.612 272.483 158.095 277.257C157.225 277.095 156.344 276.996 155.493 276.902H155.491C155.143 276.862 154.781 276.823 154.448 276.78L154.199 276.746C151.834 276.421 149.413 276.211 147.072 276.007L146.999 276.001L146.002 275.913C140.325 275.413 134.726 275.113 129.999 274.886C126.364 274.711 122.676 274.552 119.11 274.398L118.894 274.388C117.16 274.313 115.367 274.236 113.605 274.157L108.14 273.913C107.128 273.868 106.234 273.829 105.408 273.795C104.674 273.764 103.939 273.733 103.205 273.703L103.072 273.698L101.504 273.633C101.295 273.625 101.08 273.609 100.871 273.594H100.86C100.53 273.57 100.188 273.546 99.8547 273.546C99.7482 273.546 99.6497 273.548 99.5527 273.553L99.3697 273.529C99.2984 273.519 99.2286 273.511 99.1426 273.502C98.9697 273.37 98.7806 273.26 98.58 273.175L98.459 273.128L98.2051 262.913C109.736 263.377 120.003 263.665 129.593 263.794C131.41 263.818 133.305 263.83 135.227 263.83C138.929 263.83 142.865 263.786 147.26 263.694C149.852 263.639 152.437 263.514 154.944 263.323L155.9 263.244C156.387 263.205 156.896 263.165 157.388 263.13H157.391C158.13 263.074 158.896 263.018 159.657 262.945V262.945ZM161.372 247.568C160.883 251.895 160.398 256.23 159.933 260.453C158.952 260.341 157.961 260.262 157.006 260.185H156.99C156.5 260.146 155.992 260.106 155.507 260.061C152.101 259.756 149.356 259.56 146.868 259.446L141.112 259.179C137.423 259.008 133.475 258.831 129.595 258.689C118.039 258.268 107.726 257.822 98.0655 257.33C97.9953 254.57 97.9204 251.71 97.8364 248.59C98.117 248.883 98.4561 249.114 98.8317 249.268C99.2073 249.422 99.6111 249.495 100.017 249.482H100.027C103.036 249.474 106.098 249.473 109.058 249.472H109.159C117.014 249.469 125.137 249.467 133.122 249.335C141.825 249.191 146.537 248.988 149.669 248.827C152.205 248.697 154.85 248.438 157.758 248.036C158.219 247.972 158.687 247.918 159.183 247.858H159.19C159.903 247.771 160.643 247.684 161.372 247.567L161.372 247.568ZM163.138 232.267C162.632 236.557 162.118 240.998 161.61 245.466C160.698 245.304 159.768 245.19 158.869 245.084H158.866C158.407 245.028 157.974 244.976 157.547 244.918C154.503 244.504 151.797 244.234 149.274 244.09C143.545 243.767 137.893 243.62 133.12 243.518C125.112 243.348 116.97 243.302 109.095 243.257H109.062C106.1 243.24 103.036 243.223 100.025 243.199H99.9943C99.5621 243.183 99.1323 243.267 98.7372 243.442C98.3421 243.618 97.9923 243.881 97.7142 244.213C97.6421 241.634 97.5632 238.938 97.4737 235.972C97.8703 235.931 98.2701 235.882 98.6565 235.834C99.3268 235.752 99.9576 235.677 100.572 235.632C103.597 235.421 106.63 235.228 109.588 235.059C115.441 234.723 121.601 234.415 128.419 234.119C134.428 233.857 140.869 233.583 147.261 233.346L150.008 233.245C154.398 233.142 158.78 232.816 163.137 232.266L163.138 232.267ZM165.113 215.701C164.572 220.172 164.047 224.575 163.512 229.066L163.351 230.446C158.113 229.428 152.531 229.125 147.262 228.901C141.223 228.644 135.274 228.513 129.581 228.513C129.206 228.513 128.816 228.513 128.42 228.513C122.338 228.531 116.002 228.675 109.589 228.94C106.46 229.07 103.295 229.221 100.182 229.39C99.6276 229.42 99.0157 229.42 98.3683 229.42H98.3502C97.9989 229.42 97.6354 229.42 97.2699 229.426C97.2615 229.16 97.2532 228.893 97.245 228.626V228.594C97.2324 228.178 97.2194 227.749 97.2056 227.326C97.1793 226.531 97.153 225.735 97.1268 224.94V224.901C97.0637 223.011 96.9923 220.869 96.9217 218.817C98.6928 219.727 100.891 220.18 102.831 220.579C103.197 220.655 103.574 220.732 103.929 220.81L104.172 220.863C107.699 221.639 111.274 222.179 114.873 222.48C117.638 222.721 120.581 222.843 123.619 222.843C127.446 222.843 131.527 222.656 136.095 222.269L137.329 222.163C143.069 221.666 149.714 221.002 155.928 219.416C158.85 218.723 161.666 217.637 164.298 216.188C164.587 216.019 164.855 215.859 165.113 215.701ZM300.009 430.867C300.753 430.883 301.474 430.606 302.015 430.096C302.557 429.585 302.877 428.882 302.906 428.139C303.738 416.917 304.02 405.027 303.768 391.783C303.566 381.12 303.019 369.572 302.049 355.441C301.284 344.295 300.233 333.387 298.926 323.019C297.536 311.984 295.805 301.164 293.783 290.858L293.418 289.011C291.659 280.14 289.456 269.685 286.458 259.431C283.301 248.633 279.665 239.414 275.342 231.246C271.289 223.645 266.204 216.641 260.231 210.434C248.597 198.402 234.31 189.257 218.511 183.73C210.403 180.977 202.44 179.581 194.844 179.581C194.009 179.581 193.167 179.598 192.342 179.632C192.252 179.638 192.168 179.676 192.105 179.739C192.042 179.802 192.004 179.887 191.998 179.976C191.988 180.055 192.008 180.135 192.055 180.199C192.101 180.263 192.17 180.307 192.248 180.322C197.322 181.455 201.738 182.577 205.747 183.752C210.208 185.038 214.595 186.572 218.885 188.347C227.476 191.944 235.527 196.714 242.808 202.521C249.453 207.842 255.412 213.968 260.546 220.759C265.678 227.55 269.99 234.924 273.392 242.728C275.379 247.322 277.12 252.02 278.607 256.799C279.943 261.028 281.23 265.622 282.657 271.256C283.923 276.256 285.121 281.453 286.218 286.703C287.27 291.739 288.263 296.979 289.167 302.279C290.857 312.188 292.282 322.624 293.397 333.297C294.435 343.217 295.247 353.72 295.81 364.512C296.426 376.314 296.559 388.316 296.689 399.923V399.929C296.793 409.175 296.9 418.737 297.25 428.139C297.25 428.524 297.329 428.905 297.484 429.258C297.638 429.611 297.863 429.928 298.146 430.19C298.663 430.636 299.326 430.877 300.009 430.867ZM30.2867 428.16C31.0997 428.156 31.8921 427.904 32.5577 427.438C33.2302 426.986 33.7017 426.291 33.8734 425.5C35.6539 416.451 37.2377 406.874 38.8582 395.361C40.108 386.478 41.2092 377.483 42.1306 368.627C43.0595 359.705 43.8318 350.677 44.4272 341.791C45.0237 332.88 45.401 323.789 45.5481 314.775C45.612 310.847 45.526 306.738 45.2847 302.215L45.2311 301.251C45.1917 300.572 45.1594 299.875 45.1274 299.201V299.182C44.9579 295.581 44.7828 291.857 43.5898 288.436C43.5758 288.39 43.5476 288.35 43.5094 288.322C43.4712 288.294 43.4249 288.278 43.3773 288.278C43.3293 288.278 43.2827 288.294 43.2441 288.322C43.2055 288.35 43.1769 288.39 43.1624 288.436C41.868 292.058 41.5731 296.07 41.2876 299.948C41.2178 300.895 41.1461 301.872 41.0609 302.816L41.027 303.182C40.6016 307.677 40.2905 312.11 40.0177 316.232L39.9105 317.866C38.555 338.686 37.0358 355.582 35.1303 371.037C32.7493 390.344 29.4556 409.25 26.8507 423.563C26.6653 424.499 26.7972 425.47 27.2256 426.323C27.5214 426.878 27.9625 427.343 28.5019 427.666C29.0412 427.99 29.6584 428.161 30.2875 428.161L30.2867 428.16ZM219.572 426.761C220.245 426.748 220.896 426.52 221.43 426.112C221.972 425.713 222.391 425.169 222.636 424.542C222.825 424.062 222.869 423.537 222.764 423.032C222.629 422.465 222.314 421.958 221.868 421.584C219.268 419.292 216.551 417.035 213.923 414.853L213.92 414.85L213.913 414.844C212.399 413.587 210.833 412.287 209.309 410.995L207.484 409.448C204.155 406.637 200.574 403.712 196.613 401.567C196.581 401.55 196.545 401.54 196.509 401.54C196.467 401.541 196.426 401.552 196.39 401.574C196.354 401.595 196.324 401.625 196.304 401.661C196.285 401.694 196.276 401.73 196.277 401.767C196.279 401.804 196.29 401.84 196.31 401.871C198.93 406.129 202.457 409.851 205.868 413.451L206.347 413.957C207.72 415.408 209.104 416.899 210.443 418.341V418.343C212.757 420.837 215.15 423.416 217.573 425.874C217.829 426.149 218.138 426.37 218.482 426.523C218.825 426.675 219.197 426.756 219.572 426.761V426.761ZM40.8957 426.518C41.9321 426.505 42.9249 426.099 43.6741 425.383C45.1215 424.087 46.5326 422.675 47.8971 421.309L47.8995 421.307L47.9046 421.302C48.4148 420.792 48.942 420.264 49.4628 419.751L50.0376 419.188C52.3197 416.97 54.2666 414.936 55.9911 412.972L57.7034 411.025C60.8942 407.386 64.1919 403.486 66.3726 399.336C66.4051 399.281 66.4224 399.219 66.4227 399.155C66.4231 399.091 66.4064 399.029 66.3746 398.974C66.34 398.919 66.2918 398.873 66.2347 398.842C66.1775 398.81 66.1133 398.794 66.0481 398.795C65.9544 398.795 65.8638 398.829 65.7918 398.889C64.4868 399.95 63.2429 401.15 62.0396 402.31L62.0372 402.313C61.2014 403.119 60.3371 403.953 59.4614 404.731C57.5528 406.426 55.4675 408.126 52.8985 410.075C50.5514 411.856 48.2126 413.514 45.9471 415.004C44.1229 416.161 42.2401 417.224 40.3063 418.188L40.2381 418.224L39.8832 418.408C39.3814 418.473 38.8975 418.638 38.46 418.892C38.0225 419.146 37.64 419.485 37.3351 419.889C36.6755 420.779 36.3827 421.889 36.517 422.988C36.5522 423.408 36.6705 423.817 36.8648 424.191C37.0591 424.565 37.3256 424.897 37.6489 425.167L37.9277 425.385C38.7619 426.085 39.8074 426.484 40.8957 426.517V426.518ZM3.84076 422.814C4.30286 422.822 4.76208 422.739 5.19159 422.568C5.62109 422.397 6.0123 422.143 6.34241 421.819C6.59033 421.556 6.78073 421.245 6.90152 420.904C7.02228 420.564 7.07074 420.202 7.04379 419.842C7.1947 418.659 7.23917 417.466 7.17667 416.275C7.20544 416.11 7.23422 415.955 7.26498 415.802C7.35266 415.377 7.29361 414.934 7.09741 414.546C7.07098 414.022 7.04184 413.414 7.03238 412.831C6.99295 410.355 7.00162 408.107 7.06116 405.958C7.18967 401.314 7.36514 396.831 7.58157 391.452C8.00424 380.935 8.56412 371.463 9.29312 362.493C9.98071 354.026 10.8639 345.559 11.9181 337.327C13.002 328.864 14.2948 320.426 15.7615 312.246C17.2688 303.839 18.9992 295.481 20.9055 287.402C22.8635 279.105 25.0599 270.879 27.4334 262.953C28.5858 259.105 29.8306 255.349 31.1336 251.789C32.5135 248.014 34.0055 244.34 35.5633 240.868C37.2046 237.21 38.9717 233.664 40.8153 230.328C42.7472 226.832 44.8223 223.461 46.9817 220.31C48.9286 217.469 51.0426 214.676 53.2659 212.009C55.458 209.38 57.8217 206.794 60.291 204.324C63.0733 201.541 65.625 199.156 68.0912 197.034C70.7751 194.699 73.6038 192.535 76.5605 190.557C76.6366 190.503 76.6935 190.427 76.7228 190.339C76.7522 190.251 76.7523 190.156 76.7233 190.068C76.7047 189.991 76.6611 189.921 76.5994 189.871C76.5376 189.821 76.4611 189.792 76.3815 189.789C76.3357 189.79 76.2902 189.798 76.2471 189.813L75.4144 190.102C72.1904 191.222 68.4752 192.579 65.1914 194.514C61.8198 196.547 58.632 198.87 55.6642 201.456C52.5596 204.131 49.6756 207.052 47.0404 210.19C44.4042 213.328 41.9547 216.617 39.7047 220.042C37.467 223.444 35.4173 226.966 33.5647 230.593C31.7964 234.04 30.0892 237.777 28.4904 241.7C25.4641 249.27 22.8479 256.997 20.6532 264.848C16.2374 280.185 12.48 296.756 9.16577 315.511C7.62811 324.221 6.26431 332.995 5.11502 341.589C3.94208 350.363 2.95956 359.187 2.19547 367.818C1.43256 376.434 0.916077 385.155 0.660583 393.74C0.521027 398.426 0.53598 403.123 0.569489 407.102C0.577393 408.094 0.573853 409.154 0.558075 410.538L0.514313 413.975C0.508789 414.478 0.490662 415 0.472534 415.5V415.503C0.412598 417.185 0.350708 418.924 0.748505 420.554C0.909027 421.252 1.33011 421.863 1.92578 422.262C2.49652 422.629 3.16226 422.82 3.84076 422.813V422.814ZM98.7034 188.228C99.2834 188.228 99.8486 188.044 100.318 187.703C100.787 187.361 101.135 186.88 101.314 186.328C102.869 182.433 104.049 178.397 104.835 174.277C105.234 172.266 105.502 170.231 105.639 168.186C105.655 167.877 105.675 167.57 105.697 167.246C105.798 165.734 105.902 164.17 105.544 162.759C105.525 162.696 105.486 162.641 105.433 162.603C105.38 162.564 105.315 162.544 105.25 162.546C105.2 162.545 105.15 162.557 105.106 162.582C105.063 162.608 105.027 162.644 105.003 162.688C104.49 163.763 104.094 164.889 103.82 166.048C103.654 166.653 103.482 167.278 103.282 167.867C103.108 168.375 102.935 168.892 102.769 169.393L102.765 169.406V169.408C102.333 170.698 101.887 172.033 101.393 173.327C99.9748 177.082 98.2541 180.715 96.2479 184.191C95.9929 184.576 95.8475 185.022 95.8273 185.483C95.8072 185.944 95.913 186.402 96.1336 186.807C96.3932 187.245 96.7683 187.603 97.2178 187.843C97.6731 188.093 98.1839 188.225 98.7034 188.228Z"/><path fill="#fff" d="M69.8461 94.4056C70.6949 86.9481 69.5965 71.3602 69.5228 70.4132C69.0575 64.4262 71.8628 40.7847 77.1657 42.963C86.062 35.9222 97.9093 34.3672 108.988 33.6244C132.001 32.0812 156.482 35.6237 174.252 51.1106C183.04 59.1537 191.595 70.8508 190.907 83.0306C198.891 94.5756 210.148 110.413 200.2 123.909C196.818 128.221 191.444 129.827 187.196 133.093C178.651 139.985 173.291 149.875 164.665 156.726C141.814 177.261 103.011 181.551 80.5588 158.194C63.1971 141.28 66.0043 115.972 69.0583 94.4068C71.1109 79.9084 68.1905 108.954 69.8461 94.4056Z"/><path fill="#282A2B" d="M112.119 174.944C114.631 174.938 117.138 174.754 119.623 174.392C122.511 174.007 125.351 173.32 128.096 172.342C129.511 171.832 130.848 171.126 132.067 170.244C133.271 169.35 134.357 168.307 135.3 167.141C135.561 166.787 135.724 166.369 135.77 165.932C135.817 165.494 135.747 165.052 135.566 164.65C135.448 164.37 135.248 164.131 134.993 163.965C134.738 163.799 134.439 163.714 134.134 163.719C134.052 163.719 133.97 163.724 133.889 163.734C131.082 164.024 128.308 164.569 125.6 165.36L125.205 165.485C122.447 166.391 119.6 167.002 116.712 167.307C115.256 167.448 113.779 167.519 112.322 167.519C107.859 167.529 103.421 166.852 99.1634 165.513C96.8655 164.781 94.642 163.833 92.5227 162.683C90.4038 161.531 88.3911 160.194 86.5082 158.688C82.7345 155.667 79.5012 152.028 76.9464 147.924C74.179 143.482 72.3445 138.457 71.3379 132.564C70.3707 126.901 70.2801 121.071 70.3191 116.115C70.409 104.329 70.7922 91.9988 71.4585 79.4669L71.5689 77.4329C71.8508 72.2723 72.2155 65.4665 72.5345 58.5829C72.6405 56.2772 72.7923 54.3942 73.0119 52.6571C75.3243 51.3541 77.2661 49.4827 78.6535 47.2201C81.2718 48.2683 83.966 49.1158 86.7128 49.7552C90.4784 50.6873 94.3427 51.1619 98.2219 51.1687C100.489 51.1694 102.754 51.0003 104.996 50.6629C106.629 51.3371 108.317 51.9387 110.015 52.4513C110.488 52.6602 110.95 52.8621 111.395 53.0517C115.47 54.8265 119.68 56.2741 123.984 57.3808L125.049 57.6461C127.4 58.2755 129.801 58.7064 132.224 58.9342C132.648 59.0949 133.081 59.2279 133.522 59.3324C135.15 59.7264 136.82 59.9249 138.495 59.9238C139.089 59.9238 139.691 59.8986 140.283 59.8493C140.84 59.8079 141.377 59.6277 141.846 59.3252C142.315 59.0226 142.701 58.6073 142.968 58.1173C143.183 57.7091 143.291 57.2534 143.283 56.7922C143.27 56.2835 143.126 55.7869 142.864 55.3507C141.988 53.847 141.084 52.3148 140.179 50.7969C143.329 52.0969 146.555 53.2054 149.839 54.1163C152.754 54.9371 155.935 55.7115 159.85 56.5528C160.738 56.7425 161.644 56.9238 162.519 57.0997H162.522H162.525C163.414 57.2783 164.334 57.4628 165.235 57.6552C165.52 57.7159 165.839 57.7699 166.176 57.8271C167.368 58.029 168.717 58.2577 169.529 58.9129C170.425 59.6321 170.815 61.0676 171.16 62.3344C171.258 62.694 171.351 63.0338 171.449 63.3327C172.062 65.1763 172.588 66.8866 173.058 68.5607C174.038 72.0734 174.841 75.6333 175.463 79.2268C176.082 82.8288 176.507 86.4613 176.737 90.1087C176.833 91.6108 176.872 93.1418 176.91 94.6223C176.965 96.732 177.021 98.9135 177.241 101.046C177.297 101.648 177.567 102.211 178.002 102.632C178.403 103.016 178.935 103.231 179.49 103.234C180.064 103.225 180.613 103.005 181.034 102.615C181.206 102.463 181.389 102.299 181.572 102.137L181.838 101.893C183.165 100.731 184.376 99.4422 185.453 98.0453C185.639 97.7906 185.821 97.5189 185.994 97.237C186.023 97.2369 186.05 97.2274 186.073 97.2098L186.362 96.9918C189.403 94.7279 192.02 93.5802 194.141 93.5802C194.886 93.5671 195.623 93.7314 196.292 94.0594C196.961 94.3874 197.542 94.8698 197.988 95.4668C199.001 96.7513 199.51 98.4108 199.907 99.8652L200.645 102.625C201.148 104.421 201.546 106.244 201.836 108.085C202.171 110.209 202.176 112.371 201.852 114.496C201.547 116.627 200.66 118.632 199.289 120.292C198.162 121.644 196.581 122.539 194.842 122.811C194.588 122.846 194.331 122.862 194.075 122.861C193.484 122.848 192.894 122.796 192.31 122.706H192.3C192.18 122.69 192.06 122.674 191.94 122.659C191.695 122.629 191.448 122.615 191.202 122.617C190.941 122.617 190.678 122.629 190.423 122.641H190.421C190.164 122.653 189.899 122.665 189.636 122.665C189.414 122.665 189.216 122.656 189.03 122.639C188.97 122.633 188.91 122.63 188.851 122.63C188.576 122.629 188.305 122.7 188.066 122.838C187.828 122.975 187.629 123.173 187.492 123.412C187.3 123.728 187.188 124.086 187.167 124.455C187.146 124.824 187.216 125.193 187.37 125.529C187.662 126.123 188.035 126.673 188.478 127.165C188.137 127.46 187.812 127.773 187.504 128.103C186.55 128.433 185.722 129.052 185.135 129.873C184.656 130.508 184.376 131.271 184.331 132.066C184.281 132.241 184.234 132.429 184.185 132.657L183.339 134.029C183.131 134.365 182.949 134.656 182.781 134.92C180.699 138.238 178.172 141.255 175.27 143.887C174.212 144.85 173.101 145.791 172.029 146.702C170.146 148.246 168.342 149.885 166.624 151.611L166.308 151.943C164.988 153.246 163.849 154.72 162.921 156.327C161.957 158.15 161.704 159.878 162.146 161.61C162.263 161.978 162.491 162.3 162.8 162.531C163.109 162.762 163.482 162.891 163.868 162.899C164.157 162.902 164.44 162.811 164.673 162.639C166.401 161.357 167.64 159.591 168.839 157.884C169.634 156.693 170.513 155.56 171.47 154.494C172.749 153.135 174.121 151.824 175.447 150.557C176.737 149.325 178.071 148.05 179.319 146.733C181.685 144.229 183.613 141.346 185.024 138.204C185.872 139.024 187.004 139.487 188.185 139.496C189.035 139.491 189.865 139.235 190.571 138.762C191.28 138.291 191.854 137.644 192.236 136.883C192.784 137.129 193.346 137.343 193.92 137.521C194.241 137.622 194.575 137.674 194.912 137.676C195.412 137.672 195.903 137.54 196.338 137.292C196.773 137.044 197.137 136.689 197.396 136.261C197.728 135.738 197.928 135.142 197.979 134.524C198.036 133.885 197.928 133.241 197.663 132.656C197.104 131.391 196.329 130.233 195.373 129.234C198.304 128.796 201.031 127.471 203.188 125.437C205.488 123.121 207.027 120.158 207.599 116.945C207.909 115.349 208.055 113.727 208.032 112.102C208.011 110.478 207.86 108.858 207.58 107.257C206.986 103.864 206.027 100.545 204.722 97.3573C204.475 96.7533 204.236 96.2139 203.993 95.7128C204.068 95.7117 204.142 95.6942 204.209 95.6615C204.276 95.6288 204.336 95.5817 204.383 95.5236C204.681 95.1171 205.004 94.7307 205.318 94.3573C205.961 93.6523 206.513 92.8693 206.962 92.0268C207.093 91.7579 207.229 91.4835 207.361 91.2181C207.855 90.2675 208.298 89.2911 208.688 88.2931C209.719 85.5099 210.167 82.3936 210.443 79.9898C211.049 74.3762 210.893 68.7063 209.977 63.1348C209.24 58.3728 207.995 53.7036 206.261 49.2076C204.536 44.7306 202.344 40.4474 199.723 36.4286C200.013 36.2767 200.285 36.0943 200.535 35.8845L200.661 35.7749L200.865 35.5903C201.202 35.2763 201.47 34.8967 201.655 34.4749C201.839 34.0532 201.935 33.5982 201.936 33.138C201.952 32.6237 201.866 32.1113 201.682 31.6307C201.498 31.1501 201.221 30.7109 200.865 30.3387L200.435 29.905C199.86 29.3178 199.224 28.7942 198.537 28.3433C198.41 28.2577 198.276 28.1753 198.14 28.0977C198.386 27.6519 198.54 27.1607 198.591 26.654C198.643 26.1472 198.591 25.6352 198.44 25.1489C198.294 24.6327 198.044 24.1519 197.705 23.7363C197.366 23.3207 196.945 22.9793 196.468 22.7332C195.453 22.2286 194.329 21.9806 193.196 22.0109C191.508 22.0259 189.843 22.4056 188.315 23.124C184.432 19.6515 180.134 16.6733 175.519 14.2572C169.897 11.3528 164.059 8.88842 158.056 6.88639C152.056 4.87371 145.935 3.24083 139.73 1.99746C134.303 0.841654 128.773 0.231445 123.224 0.175934C122.468 0.175934 121.71 0.189733 120.971 0.215361L120.487 0.234286C117.924 0.296717 115.368 0.536744 112.838 0.952644C109.847 1.49476 107.493 2.35782 105.643 3.59149C105.477 3.42137 105.25 3.32386 105.012 3.32023C104.896 3.3201 104.782 3.34611 104.677 3.39632C100.135 5.5648 95.1679 7.17736 90.3653 8.73788L89.2219 9.10928C84.0796 10.7938 78.759 11.8756 73.3672 12.3332C72.8024 12.3834 72.2603 12.5787 71.7933 12.9002C71.3344 13.2074 70.9632 13.6285 70.7161 14.1224C70.5149 14.5206 70.4249 14.9657 70.4555 15.4107C70.4861 15.8558 70.6362 16.2844 70.89 16.6512C71.2054 17.135 71.5086 17.6168 71.7885 18.0651L71.3414 18.0182H71.3391C70.9996 17.9823 70.6483 17.9452 70.3033 17.9105C70.2324 17.9034 70.1598 17.8999 70.0877 17.8999C69.6957 17.9167 69.3112 18.0127 68.9574 18.1821C68.6035 18.3515 68.2876 18.5908 68.0288 18.8856C67.7433 19.1729 67.5179 19.5143 67.3659 19.8897C67.2138 20.2652 67.1382 20.6672 67.1433 21.0722C67.2024 22.0627 67.3116 23.0497 67.4705 24.0292H67.4587H67.357C66.767 24.0237 66.182 24.137 65.6368 24.3624C64.2931 24.9301 63.4726 25.9946 63.1288 27.6174C62.8406 28.9773 62.9341 30.5122 63.0539 31.9682C63.3965 36.1183 64.989 40.0026 67.4232 42.6257C66.4451 43.6402 65.5974 44.7729 64.8999 45.9975C64.1862 47.2644 63.6255 48.6116 63.2298 50.0107C62.5881 52.1406 62.3265 54.3669 62.457 56.5875L62.5098 57.2471C62.7251 59.7622 63.1568 62.3218 64.8427 64.0077C65.1843 64.3631 65.594 64.646 66.0474 64.8395C66.5008 65.033 66.9886 65.133 67.4815 65.1337C67.6038 65.1337 67.7284 65.1274 67.851 65.1156C67.2201 70.6657 66.8093 76.3491 66.4434 81.6946L66.2656 84.3362C65.7751 91.7551 65.4463 97.8541 65.2307 103.53C64.9665 110.486 64.8758 116.769 64.9547 122.74C64.9852 125.705 65.1763 128.666 65.5272 131.611C65.8744 134.512 66.4288 137.384 67.1862 140.206C67.9437 143.014 68.9491 145.75 70.1906 148.38C71.4655 151.066 73.0096 153.616 74.7992 155.99C76.4659 158.195 78.3144 160.257 80.3253 162.154C82.3301 164.045 84.4919 165.762 86.7873 167.287C89.0816 168.81 91.5055 170.129 94.0308 171.228C96.5689 172.329 99.2033 173.194 101.9 173.812C105.254 174.571 108.681 174.951 112.119 174.944ZM185.97 114.829H186.035C187.043 114.799 188.008 114.411 188.756 113.735C189.496 113.042 190.157 112.27 190.727 111.432C190.926 111.161 191.132 110.883 191.34 110.615C191.505 110.923 191.729 111.196 191.998 111.419L192.179 111.561C192.733 112.04 193.43 112.322 194.161 112.364C194.198 112.364 194.234 112.364 194.269 112.361C194.836 112.336 195.39 112.186 195.893 111.923C196.514 111.58 196.99 111.024 197.234 110.358C197.513 109.652 197.547 108.873 197.328 108.146C197.109 107.418 196.652 106.787 196.029 106.352L196.266 106.189C196.79 105.854 197.244 105.42 197.602 104.91L197.683 104.779H197.652C197.752 104.612 197.813 104.424 197.83 104.229C197.847 104.035 197.819 103.839 197.748 103.657C197.677 103.475 197.565 103.312 197.421 103.18C197.278 103.047 197.105 102.95 196.918 102.895C196.533 102.774 196.132 102.714 195.729 102.718C194.058 102.718 192.199 103.583 190.705 104.277C190.555 104.347 190.4 104.419 190.251 104.487C187.871 105.579 185.818 107.23 183.954 108.852C183.108 109.591 182.771 110.863 183.055 112.254L183.069 112.325C183.088 112.42 183.109 112.518 183.13 112.617C183.281 113.25 183.655 113.808 184.184 114.187C184.695 114.586 185.322 114.812 185.97 114.829Z"/><path fill="#282A2B" fill-rule="evenodd" d="M84.1233 72.6002C86.3683 72.2106 88.8198 72.198 91.0297 72.8182C92.768 73.3055 95.5007 74.4138 96.2518 76.1892C96.4032 76.5476 96.4008 77.1 95.964 77.2861C95.3741 77.4812 94.3451 77.5837 94.4524 77.3637C93.9461 77.3096 93.4355 77.2108 92.9218 77.1115C92.1143 76.9553 91.3002 76.7979 90.4892 76.8114C88.7662 76.8401 87.158 77.1418 85.5525 77.7856C84.1071 78.3652 82.7524 79.1924 81.5992 80.2415C80.2015 81.5126 79.4248 83.4217 77.774 84.3746C75.749 85.5432 73.4035 84.0352 73.2967 81.8056C73.1685 79.1355 75.5554 76.9425 77.5556 75.4353L77.7685 75.2765C79.6006 73.9198 81.8791 72.9897 84.1233 72.6002ZM142.105 77.6395C138.529 74.4743 132.032 71.4176 127.21 72.9753C124.438 73.8707 123.23 78.3374 126.324 79.7532C129.908 81.3926 134.04 80.7255 137.687 82.4248C139.219 83.1388 140.659 84.031 141.726 85.3396C142.566 86.371 143.421 87.7281 144.636 88.3226C144.955 88.4792 145.388 88.4831 145.644 88.1929C148.307 85.1799 144.43 79.698 142.105 77.6395ZM74.2536 97.3432C72.7861 91.4599 79.3101 85.6815 84.8838 86.1408C87.7084 86.3738 90.225 87.9998 91.7705 90.3457C92.8504 91.9851 93.8728 95.2544 92.1695 96.8247C91.929 97.0463 91.603 97.0329 91.3593 96.8247C90.3697 95.9774 89.7984 94.5766 88.8431 93.6193C87.7853 92.5591 86.3931 91.8049 84.8838 91.7032C83.5145 91.6109 82.2407 92.2118 81.3441 93.2463C80.2579 94.4993 80.2989 95.8343 79.8892 97.3432C79.1449 100.085 74.9573 100.166 74.2536 97.3432ZM131.491 88.0739C128.581 87.5578 125.6 88.2813 123.192 89.9838L123.01 90.115C120.69 91.8115 118.095 94.7904 119.426 97.7146C119.96 98.8887 121.56 99.0729 122.575 98.5406C124.266 97.6543 124.572 95.4736 126.08 94.2667C127.317 93.2775 128.982 92.6774 130.575 92.8221C134.317 93.162 136.619 96.8527 137.781 100.033C137.93 100.44 138.527 100.598 138.761 100.161C141.501 95.0391 136.65 88.9894 131.491 88.0739ZM95.3876 115.318C92.1849 110.831 96.7214 106.611 99.6985 104.802C100.478 104.242 99.8594 102.387 98.1928 102.674C83.054 105.275 90.898 131.352 110.226 117.042C112.528 115.186 109.741 111.097 107.261 112.686C107.135 112.783 107.003 112.885 106.866 112.991C104.079 115.146 98.9805 119.088 95.3876 115.318ZM117.308 125.274C115.103 121.646 110.402 130.533 109.902 132.061C109.46 133.415 109.168 134.802 109.019 136.205C107.309 136.588 105.534 136.589 103.782 136.253C101.177 135.753 99.5857 134.354 97.3226 133.152C95.7593 132.321 93.7892 133.295 92.9762 134.672C92.0201 136.294 92.6292 137.977 93.887 139.186C96.2719 141.478 100.964 142.005 104.078 141.396C105.861 141.047 107.496 140.378 108.94 139.406C108.949 139.588 108.955 139.769 108.97 139.95L108.997 140.264C109.237 142.806 109.935 146.003 111.91 147.658C115.149 150.371 119.145 145.152 115.999 142.442L115.901 142.361C113.945 140.78 113.518 136.54 113.624 134.204C113.693 132.68 113.97 131.136 114.452 129.684L114.551 129.395C114.695 128.985 116.275 125.094 116.846 125.59L116.873 125.618C117.109 125.899 117.489 125.571 117.308 125.274Z" clip-rule="evenodd"/><path fill="#282A2B" fill-rule="evenodd" d="M85.8994 77.8896C82.6928 77.1732 55.2663 73.8262 54.4951 82.5672C53.8793 83.9704 54.0504 91.4781 56.7085 89.2536C63.4422 94.331 61.4997 104.071 66.3985 110.525C72.8949 119.824 94.4815 118.741 97.2378 91.9165C99.9744 90.8238 102.385 91.2559 104.849 91.6974C105.959 91.8963 107.08 92.0972 108.246 92.1613C104.454 120.637 150.684 132.619 154.309 97.9031C154.836 93.4072 156.196 93.8054 160.201 92.517C160.922 92.3656 161.746 92.2216 162.537 91.9942C163.851 92.4318 164.558 91.8065 165.598 90.8881C168.65 88.1908 174.564 82.9652 207.113 94.7146C207.148 96.5298 208.417 97.4264 209.687 96.5452C218.057 85.1055 177.138 82.0156 168.175 82.3393C166.429 81.8378 164.782 81.5527 163.427 82.0842C156.27 76.3275 122.131 73.0866 111.993 84.3875C105.238 86.5127 99.5439 83.8328 93.7856 81.1228C91.2035 79.9076 88.6084 78.6864 85.8994 77.8896ZM65.6032 81.5748C65.6072 81.5799 65.6119 81.5843 65.6158 81.5894C65.6462 81.5709 65.6762 81.5519 65.7073 81.5338C65.673 81.548 65.6367 81.5602 65.6032 81.5748ZM72.0322 111.515C77.9494 114.365 86.2046 110.162 90.1831 105.759C91.6313 104.156 92.7486 99.5692 92.1915 96.6603C90.6827 88.7824 85.0131 84.0544 79.0277 82.4398C70.7307 80.2012 62.3809 85.8723 63.3543 92.5647C64.2773 98.9073 65.6758 108.108 72.0322 111.515ZM127.916 114.708C119.676 112.482 112.781 104.968 112.307 96.3824C112.125 92.7409 113.191 89.144 115.797 86.6518C124.7 83.8273 142.526 82.0736 149.853 92.362C151.716 94.9776 151.022 98.0269 150.726 99.0259C147.754 109.08 141.193 118.413 127.916 114.708Z" clip-rule="evenodd"/></svg>